<svg width="130" height="104" viewBox="0 0 130 104" fill="none" xmlns="http://www.w3.org/2000/svg">
<path d="M77.7459 22.0083C77.7579 22.0216 77.7716 22.0332 77.7835 22.0465C77.775 22.0299 77.763 22.015 77.7459 22.0083ZM77.7459 22.0083C77.7579 22.0216 77.7716 22.0332 77.7835 22.0465C77.775 22.0299 77.763 22.015 77.7459 22.0083ZM77.7459 22.0083C77.7579 22.0216 77.7716 22.0332 77.7835 22.0465C77.775 22.0299 77.763 22.015 77.7459 22.0083ZM75.4233 26.6899C75.4404 26.6816 75.4541 26.67 75.4626 26.6518C75.449 26.6651 75.437 26.6767 75.4233 26.6899ZM77.7459 22.0083C77.7579 22.0216 77.7716 22.0332 77.7835 22.0465C77.775 22.0299 77.763 22.015 77.7459 22.0083ZM75.4233 26.6899C75.4404 26.6816 75.4541 26.67 75.4626 26.6518C75.449 26.6651 75.437 26.6767 75.4233 26.6899ZM77.7459 22.0083C77.7579 22.0216 77.7716 22.0332 77.7835 22.0465C77.775 22.0299 77.763 22.015 77.7459 22.0083ZM75.4233 26.6899C75.4404 26.6816 75.4541 26.67 75.4626 26.6518C75.449 26.6651 75.437 26.6767 75.4233 26.6899ZM77.7459 22.0083C77.7579 22.0216 77.7716 22.0332 77.7835 22.0465C77.775 22.0299 77.763 22.015 77.7459 22.0083ZM75.4233 26.6899C75.4404 26.6816 75.4541 26.67 75.4626 26.6518C75.449 26.6651 75.437 26.6767 75.4233 26.6899ZM77.7459 22.0083C77.7579 22.0216 77.7716 22.0332 77.7835 22.0465C77.775 22.0299 77.763 22.015 77.7459 22.0083ZM75.4233 26.6899C75.4404 26.6816 75.4541 26.67 75.4626 26.6518C75.449 26.6651 75.437 26.6767 75.4233 26.6899ZM77.7459 22.0083C77.7579 22.0216 77.7716 22.0332 77.7835 22.0465C77.775 22.0299 77.763 22.015 77.7459 22.0083ZM75.4233 26.6899C75.4404 26.6816 75.4541 26.67 75.4626 26.6518C75.449 26.6651 75.437 26.6767 75.4233 26.6899ZM77.7459 22.0083C77.7579 22.0216 77.7716 22.0332 77.7835 22.0465C77.775 22.0299 77.763 22.015 77.7459 22.0083ZM75.4233 26.6899C75.4404 26.6816 75.4541 26.67 75.4626 26.6518C75.449 26.6651 75.437 26.6767 75.4233 26.6899ZM77.7459 22.0083C77.7579 22.0216 77.7716 22.0332 77.7835 22.0465C77.775 22.0299 77.763 22.015 77.7459 22.0083ZM75.4233 26.6899C75.4404 26.6816 75.4541 26.67 75.4626 26.6518C75.449 26.6651 75.437 26.6767 75.4233 26.6899ZM77.7459 22.0083C77.7579 22.0216 77.7716 22.0332 77.7835 22.0465C77.775 22.0299 77.763 22.015 77.7459 22.0083ZM75.4233 26.6899C75.4404 26.6816 75.4541 26.67 75.4626 26.6518C75.449 26.6651 75.437 26.6767 75.4233 26.6899ZM77.7459 22.0083C77.7579 22.0216 77.7716 22.0332 77.7835 22.0465C77.775 22.0299 77.763 22.015 77.7459 22.0083ZM75.4233 26.6899C75.4404 26.6816 75.4541 26.67 75.4626 26.6518C75.449 26.6651 75.437 26.6767 75.4233 26.6899ZM77.7459 22.0083C77.7579 22.0216 77.7716 22.0332 77.7835 22.0465C77.775 22.0299 77.763 22.015 77.7459 22.0083ZM75.4233 26.6899C75.4404 26.6816 75.4541 26.67 75.4626 26.6518C75.449 26.6651 75.437 26.6767 75.4233 26.6899ZM122.794 37.3412C122.775 37.2766 122.739 37.2103 122.689 37.1456C122.522 35.7 121.785 34.6026 120.464 33.8317C122.055 32.8155 122.83 31.4312 122.517 29.6408C122.205 27.8587 121.039 26.7844 119.105 26.4048C121.352 25.6803 121.87 24.0375 121.72 22.8057C121.201 19.3244 116.418 19.0956 115.368 22.1128C115.226 22.204 115.208 22.0697 115.155 22.0017C114.694 20.5793 113.703 19.6692 112.214 19.1868C113.919 18.3314 114.807 17.0499 114.338 15.1782C113.998 13.8222 113.028 12.9684 111.605 12.7711C109.761 12.5142 108.537 13.4028 107.799 15.0406C107.274 13.358 106.158 12.3335 104.437 12.0599C102.511 11.7549 101.054 12.544 100.004 14.1637C99.3574 13.1126 98.4646 12.4213 97.2503 12.1561C97.1972 12.1163 97.1374 12.118 97.0775 12.1229C97.1357 12.113 97.1972 12.1113 97.2349 12.0517C97.3067 11.9969 97.4042 12.0119 97.476 11.9621C100.531 10.863 100.483 6.66052 97.3016 5.71724C96.012 5.37242 94.6164 5.73547 93.7476 6.73346C92.21 8.5073 92.9967 11.1415 95.1876 11.9671C95.2885 12.0019 95.3689 12.0765 95.4767 12.0948C95.4271 12.1379 95.3433 12.0997 95.3005 12.1611C94.1153 12.5241 93.1849 13.1889 92.5931 14.3709C92.0407 13.3049 91.1735 12.6667 90.0926 12.3003C90.1456 12.1677 90.2311 12.1859 90.2927 12.1594C93.7304 10.8415 93.2652 5.73216 89.3093 5.34921C87.2364 5.10883 85.7023 6.58923 85.3756 8.52056C85.3465 8.57858 85.3328 8.63661 85.3277 8.69629C85.3209 8.63826 85.3003 8.58024 85.2559 8.52553C84.9566 6.27094 82.7468 5.03423 80.9305 5.44039C77.4894 6.12671 77.1079 10.4121 79.8068 11.8643C80.1301 12.0417 80.4978 12.1279 80.8416 12.3517C79.3553 12.7048 78.3907 13.5685 77.9033 14.9428C77.7237 14.7936 77.7185 14.6163 77.6467 14.4704C76.0681 11.3836 71.4742 11.8262 70.5421 15.1484C70.4993 15.2048 70.5062 15.2711 70.501 15.3357C70.4993 15.2711 70.5044 15.2048 70.4617 15.1484C69.5655 12.0384 65.3051 11.4897 63.6632 14.2582C62.3736 16.4415 63.7966 19.1536 66.3399 19.5747C66.3689 19.5996 66.3963 19.6211 66.4288 19.641C66.4493 19.6543 66.4647 19.6659 66.4852 19.6758H66.4955C66.5211 19.6858 66.5485 19.6957 66.5776 19.7007C66.8427 19.7305 67.1146 19.7289 67.3814 19.7057C67.3985 19.7024 67.4156 19.699 67.4327 19.6941C69.0729 19.3476 70.2582 18.338 70.4959 16.9604C70.5027 16.9372 70.5045 16.9106 70.501 16.8874C70.4976 16.8145 70.4754 16.7415 70.5233 16.7034C70.5267 16.6984 70.5318 16.6951 70.5318 16.6951L70.5233 16.7034C70.4908 16.7482 70.501 16.8161 70.5045 16.8874C70.5045 16.9123 70.5045 16.9388 70.501 16.9637C70.655 18.1954 71.9958 19.4388 73.1623 19.6344C71.8453 19.8598 70.7918 21.0783 70.4805 22.3134V22.3167C70.4685 22.3565 70.4566 22.3946 70.4463 22.436V22.4394C70.4292 22.5223 70.4172 22.6018 70.4155 22.6864C70.4104 22.7709 70.4087 22.8571 70.4104 22.9417C70.4104 23.1406 70.4104 23.3395 70.4087 23.5385C70.4104 23.6512 70.4121 23.7639 70.4258 23.875C70.4309 23.8949 70.436 23.9131 70.4412 23.9314C70.4531 23.9795 70.4651 24.0226 70.4805 24.0673V24.0706C70.8431 25.3189 71.6025 26.2423 72.9091 26.7165C72.9912 26.738 73.0733 26.7513 73.1571 26.7629H73.1606C73.1742 26.7645 73.1879 26.7662 73.2016 26.7712L73.205 26.7728C73.2341 26.7795 73.2632 26.7877 73.2906 26.7994L73.2991 26.801L73.2906 26.8076C73.2307 26.8557 73.1742 26.7529 73.1144 26.796C71.5084 27.2702 70.6858 28.4538 70.4121 29.9475C70.4155 30.1564 70.3779 30.3106 70.4514 30.5078V30.5111V30.5161V30.5211V30.5261V30.531V30.536V30.541V30.546V30.5509V30.5576V30.5692C70.46 30.5924 70.4703 30.6156 70.4822 30.6388C70.501 30.6736 70.525 30.7084 70.5541 30.7432C70.8978 32.4027 72.0078 33.5515 73.7506 33.8416C73.7917 33.8765 73.8344 33.9046 73.8789 33.9245C74.0978 34.0257 74.3475 33.9693 74.5835 33.9776C74.6725 33.9643 74.7597 33.9477 74.8452 33.9312C74.8555 33.9295 74.8623 33.9278 74.8692 33.9245H74.8828C74.9376 33.9129 74.9923 33.9013 75.0453 33.8897C76.429 33.5631 77.409 32.7608 77.8622 31.345C77.8622 31.2903 77.8622 31.2373 77.8588 31.1859C77.8588 31.0831 77.8571 30.9704 77.9118 30.8875C77.8913 30.9306 77.8861 31.0002 77.8759 31.0698C77.8742 31.0847 77.8708 31.098 77.869 31.1113C78.1034 32.4905 79.4015 33.7869 80.7868 33.8914C80.8108 33.9013 80.8381 33.898 80.8638 33.8947C80.9288 33.8848 80.9972 33.8649 81.04 33.9411C80.9921 33.8748 80.9254 33.8848 80.8638 33.8947C80.8501 33.8964 80.8381 33.9013 80.8245 33.9013C80.8074 33.903 80.7903 33.903 80.7731 33.8997C79.3382 34.1251 78.2162 35.2458 77.8861 36.7444C77.8776 36.7792 77.8708 36.8124 77.8656 36.8456C77.8622 36.8505 77.8639 36.8621 77.8639 36.8621C77.8451 36.9517 77.8314 37.0362 77.8194 37.129C77.8348 37.3512 77.7767 37.5833 77.8708 37.7922C77.8913 37.8402 77.9203 37.8867 77.9597 37.9314C78.2043 39.5428 79.4323 40.6999 81.0519 41.0149C81.081 41.0414 81.1101 41.0646 81.1426 41.0845C81.1631 41.0994 81.1853 41.1111 81.2076 41.1193H81.2161C81.2418 41.1326 81.2606 41.1409 81.2897 41.1475C81.5017 41.1757 81.7121 41.1641 81.9242 41.1641C82.0114 41.1608 82.0986 41.1525 82.1842 41.1359C82.1944 41.1343 82.2047 41.1326 82.2149 41.1293C83.6892 40.8607 84.7393 40.002 85.2884 38.6078C85.7724 39.8395 86.5489 40.748 87.8179 41.0663C86.4633 41.5106 85.6202 42.4754 85.2695 43.8729V43.8879C85.2661 43.8995 85.2644 43.9127 85.2644 43.9243C85.2405 44.0453 85.2388 44.1664 85.237 44.2874C85.237 44.5626 85.2234 45.0483 85.249 45.3185V45.3252V45.3334L85.2524 45.3451C85.2576 45.3616 85.261 45.3782 85.2661 45.3948L85.2678 45.3981C85.6646 46.8122 86.4394 47.8798 88.0437 48.1998C88.0522 48.1998 88.0796 48.2047 88.0796 48.2047L88.0591 48.2097C87.8521 48.1981 87.6606 48.2793 87.4707 48.3655C86.1777 48.9474 85.5107 49.9769 85.2713 51.2551C85.2678 51.2634 85.2678 51.2667 85.2678 51.2733C85.2559 51.3396 85.2439 51.4076 85.2336 51.4756C85.2388 51.6148 85.2217 51.7574 85.2576 51.89V51.895C85.2764 51.9646 85.3106 52.0243 85.367 52.084C85.6681 53.8711 86.7951 55.0779 88.6867 55.2918C88.7175 55.3167 88.7483 55.3366 88.7808 55.3515C88.9108 55.4211 89.0579 55.4294 89.2084 55.4244C89.3042 55.4161 89.3999 55.4045 89.494 55.3896H89.4991C90.9649 55.199 92.4871 54.0186 92.6461 52.52C92.6085 53.9274 94.3342 55.315 95.4989 55.3382C95.6101 55.3316 95.723 55.3448 95.8324 55.32C95.723 55.3515 95.6101 55.3332 95.5006 55.3432C93.9613 55.5222 92.7863 56.9529 92.5486 58.3687C92.5247 58.624 92.5264 58.8859 92.552 59.1412C92.5691 59.2307 92.6119 59.3053 92.6666 59.3766C92.918 60.9863 94.0605 62.0473 95.658 62.4485C95.6836 62.4816 95.7127 62.5082 95.7452 62.5297C95.7657 62.5446 95.7879 62.5562 95.8119 62.5662C95.8632 62.5894 95.9231 62.601 95.9846 62.606C96.3951 62.6242 96.8124 62.6292 97.2058 62.5032C97.2622 62.4899 97.3204 62.4767 97.3768 62.465C98.6493 62.0937 99.5147 61.2963 100.006 60.0861C100.493 61.2714 101.275 62.1318 102.551 62.5048C101.208 62.9591 100.385 63.8377 99.9902 65.2435C99.9833 65.2584 99.9799 65.2733 99.9765 65.2883C99.9713 65.3015 99.9679 65.3148 99.9645 65.3297C99.9594 65.3662 99.956 65.401 99.9542 65.4375C99.9525 65.4623 99.9508 65.4855 99.9508 65.5104C99.9491 65.5303 99.9491 65.5519 99.9491 65.5717C99.944 65.8188 99.9491 66.0691 99.9474 66.3161C99.9474 66.399 99.9474 66.4802 99.9491 66.5631C99.9491 66.5747 99.9491 66.5929 99.9508 66.6046C99.9508 66.6526 99.9525 66.6991 99.956 66.7471C99.9594 66.762 99.9594 66.777 99.9611 66.7919C99.9628 66.8035 99.9645 66.8134 99.9662 66.825V66.83C99.9679 66.8416 99.9714 66.8516 99.9748 66.8632V66.9195C100.396 68.4016 101.507 69.4493 102.896 69.6565C102.954 69.6665 103.014 69.6731 103.074 69.6798C103.127 69.6847 103.185 69.688 103.24 69.6914C103.566 69.693 103.893 69.6914 104.22 69.6897C104.254 69.688 104.288 69.6864 104.321 69.6831C104.35 69.6814 104.377 69.6798 104.404 69.6748C104.437 69.6731 104.468 69.6698 104.5 69.6648H104.505C105.899 69.4941 106.742 68.5939 107.377 67.3638C107.919 68.5574 108.779 69.325 109.954 69.7245C108.648 70.2699 107.707 71.1088 107.411 72.4715C107.399 72.5378 107.386 72.6008 107.375 72.6671C107.372 72.6936 107.367 72.7201 107.363 72.7467C107.356 72.9672 107.348 73.191 107.379 73.4098C107.391 73.4645 107.408 73.5093 107.437 73.5573C107.452 73.5855 107.471 73.612 107.492 73.6386C107.793 75.3063 108.954 76.5016 110.695 76.674C112.152 76.8414 113.343 76.2545 114.124 75.0477C115.287 73.2556 114.644 70.7523 112.186 69.8853C112.044 69.8356 111.889 69.8256 111.779 69.7013C113.425 69.2371 114.535 68.2839 114.81 66.5731C114.872 66.4388 114.868 66.3028 114.861 66.1652C114.884 66.4172 114.962 66.6626 115.017 66.9112C115.682 70.0213 120.587 70.5965 121.846 67.1549C122.508 65.3131 121.425 63.3404 119.515 62.7005C123.238 61.361 123.391 56.9645 120.168 55.3482C123.161 53.8893 123.372 50.0068 120.403 48.2412C120.459 48.0821 120.62 48.0473 120.746 47.9743C121.774 47.3924 122.339 46.3347 122.57 45.2356C122.59 45.2075 122.609 45.1793 122.626 45.1494C122.641 45.1262 122.652 45.1163 122.665 45.0997V45.0765C122.677 45.0483 122.686 45.0168 122.691 44.9853C122.706 44.7151 122.744 44.4217 122.66 44.1597C122.652 44.1349 122.64 44.115 122.624 44.0918C122.607 44.0586 122.587 44.0288 122.563 44.0006C122.308 42.744 121.617 41.7709 120.447 41.0845C121.805 40.3319 122.498 39.2361 122.684 37.8237C122.736 37.759 122.771 37.6927 122.792 37.6264C122.823 37.5302 122.825 37.4374 122.794 37.3412ZM85.3807 36.4891C85.314 36.4842 85.2473 36.4792 85.1806 36.4742C84.7376 35.1414 83.7987 34.3191 82.415 33.9527C82.4219 33.9179 82.4253 33.8831 82.4236 33.8483C83.8551 33.53 84.753 32.6348 85.2815 31.2605C85.798 32.5535 86.5369 33.525 88.0266 33.9013C86.6019 34.3241 85.8134 35.2441 85.3807 36.4891ZM85.2713 24.3176C85.769 25.4748 86.4274 26.3203 87.6264 26.796C86.4018 27.2901 85.7347 28.1737 85.2832 29.3689C84.8095 28.0991 84.009 27.2453 82.6801 26.8093C83.927 26.3584 84.7838 25.6024 85.2713 24.3176ZM82.6767 19.6377C83.9526 19.2382 84.7291 18.4789 85.2713 17.3765C85.8015 18.3944 86.4326 19.2199 87.599 19.6394C86.4155 20.0886 85.769 20.9374 85.2901 22.0448C84.7787 20.886 84.009 20.0472 82.6767 19.6377ZM85.326 8.86704C85.3311 8.94661 85.3363 9.02619 85.3294 9.1041C85.3294 9.13228 85.3311 9.15881 85.3328 9.18533C85.3311 9.1986 85.3328 9.2102 85.3328 9.2218C85.3961 10.6492 86.2718 11.5709 87.5169 12.297C86.4668 12.68 85.8271 13.416 85.2849 14.3096C84.9189 13.8736 84.6795 13.4061 84.2673 13.0778C83.8431 12.7413 83.3523 12.5191 82.8478 12.3219C84.2382 11.6853 85.1857 10.7503 85.314 9.22512C85.3157 9.21186 85.3157 9.1986 85.3157 9.18533C85.3191 9.15549 85.3209 9.12565 85.3226 9.09581C85.3089 9.02121 85.3209 8.9433 85.326 8.86704ZM77.9614 29.5214C77.9015 29.4568 77.8417 29.3938 77.7801 29.3291C77.7716 29.3208 77.763 29.3109 77.7544 29.3026C77.3423 28.0775 76.4769 27.2901 75.2386 26.8657C75.3002 26.8076 75.3617 26.748 75.4233 26.6899C75.4404 26.6816 75.4541 26.67 75.4626 26.6518C76.5709 26.1959 77.3628 25.4466 77.7664 24.3342C77.8297 24.2977 77.8947 24.2613 77.958 24.2248C78.377 25.4781 79.2253 26.3319 80.5816 26.7994C79.1774 27.2967 78.3171 28.1886 77.9614 29.5214ZM77.7544 17.2654C77.8229 17.2306 77.893 17.1941 77.9614 17.1576C78.3394 18.396 79.2287 19.152 80.5166 19.6327C79.2031 20.1185 78.3325 20.949 77.9563 22.2222C77.8981 22.1642 77.8417 22.1045 77.7835 22.0465C77.775 22.0299 77.763 22.015 77.7459 22.0083C77.2362 20.755 76.3229 19.9494 74.8709 19.6394C76.2904 19.2846 77.2721 18.5518 77.7544 17.2654ZM92.5845 17.6782C93.0634 18.5535 93.6911 19.21 94.6472 19.646C93.6774 20.1234 93.0378 20.7965 92.6033 21.7365C92.1262 20.7584 91.4232 20.0671 90.3765 19.6427C91.3771 19.2365 92.0868 18.6066 92.5845 17.6782ZM92.5982 24.6393C93.0292 25.6455 93.727 26.3086 94.6899 26.806C93.7168 27.3066 93.0207 27.993 92.6102 29.0374C92.1433 27.9714 91.4369 27.2652 90.3577 26.8159C91.3634 26.3352 92.145 25.6886 92.5982 24.6393ZM92.6033 31.6036C93.0925 32.7044 93.8382 33.4819 95.0303 33.9096C93.8484 34.402 93.0429 35.1861 92.6187 36.398C92.1381 35.143 91.2779 34.3241 89.9421 33.9046C91.2522 33.5482 92.0731 32.7674 92.6033 31.6036ZM92.6051 38.5431C93.0822 39.8064 93.9169 40.6336 95.2441 41.0729C93.8963 41.5819 93.0207 42.4257 92.6153 43.8298C92.157 42.366 91.2197 41.4874 89.6736 41.0796C91.1479 40.7066 92.0937 39.9108 92.6051 38.5431ZM92.629 51.1722C92.2014 49.6553 91.3309 48.6275 89.7369 48.3075C89.7403 48.2429 89.742 48.1799 89.7454 48.1152C91.271 47.845 92.1484 46.8934 92.6205 45.4545C93.0121 46.8868 93.922 47.7638 95.4048 48.2147C93.8621 48.7419 92.9745 49.6818 92.629 51.1722ZM107.745 17.1527C107.811 17.1908 107.878 17.2273 107.945 17.2637C108.318 18.1623 109.021 18.7475 109.987 19.1752C108.802 19.5515 107.943 20.1748 107.356 21.1712C106.91 20.5114 106.395 19.9858 105.663 19.6244C106.705 19.0492 107.406 18.2418 107.745 17.1527ZM108.906 26.8076C108.23 27.3298 107.777 27.678 107.372 28.4721C106.936 27.7559 106.397 27.2171 105.674 26.8209C106.351 26.4081 106.924 25.934 107.336 25.241C107.757 25.8776 108.258 26.4081 108.906 26.8076ZM107.344 32.1557C107.813 32.8884 108.352 33.5184 109.219 33.9129C108.379 34.3837 107.784 34.9872 107.355 35.8111C106.907 34.9723 106.276 34.3705 105.374 33.9312C106.241 33.52 106.888 32.963 107.344 32.1557ZM106.448 40.312C106.807 39.9788 107.098 39.5992 107.353 39.1217C107.822 40.0202 108.47 40.6419 109.381 41.0812C108.458 41.557 107.803 42.2201 107.356 43.1485C106.903 42.1787 106.188 41.5371 105.212 41.0928C105.651 40.8193 106.098 40.6353 106.448 40.312ZM107.326 46.169C107.632 46.595 107.859 47.0277 108.201 47.3808C108.555 47.7455 109.034 47.9345 109.481 48.2329C108.473 48.7717 107.808 49.4265 107.362 50.4759C106.912 49.3884 106.158 48.6905 105.005 48.213C106.125 47.8036 106.888 47.1819 107.326 46.169ZM107.36 53.0389C107.842 54.1479 108.608 54.9155 109.795 55.3531C108.593 55.8405 107.805 56.6429 107.363 57.8266C106.893 56.5666 106.029 55.7842 104.705 55.3598C105.997 54.9619 106.864 54.2424 107.36 53.0389ZM107.355 60.0049C107.82 61.2267 108.636 62.0456 109.936 62.5048C108.605 62.9955 107.796 63.8692 107.368 65.1689C106.908 63.7565 106.004 62.911 104.557 62.5115C105.904 62.1036 106.884 61.3709 107.355 60.0049ZM100.004 17.8407C100.467 18.6165 101.035 19.2067 101.848 19.6195C100.982 20.0339 100.44 20.6804 99.9611 21.4629C99.501 20.6606 98.9024 20.0737 98.0421 19.6443C98.9315 19.2216 99.5284 18.6497 100.004 17.8407ZM99.9577 24.9194C100.416 25.7334 101.001 26.365 101.824 26.8126C101.011 27.2702 100.426 27.8786 99.9953 28.7423C99.4976 27.9167 98.9144 27.242 97.9703 26.8159C98.8443 26.3617 99.4993 25.7964 99.9577 24.9194ZM99.9696 31.8705C100.484 32.774 101.104 33.4985 102.135 33.9113C101.165 34.3987 100.454 35.0767 99.9936 36.141C99.4822 35.0734 98.7553 34.3572 97.6419 33.9162C98.7297 33.5283 99.4429 32.842 99.9696 31.8705ZM99.9782 38.7852C100.479 39.8909 101.206 40.6237 102.321 41.0713C101.201 41.5719 100.452 42.3295 99.9919 43.4867C99.4737 42.3096 98.6972 41.5073 97.4127 41.0878C98.6219 40.6668 99.4531 39.9755 99.9782 38.7852ZM100.019 45.8606C100.459 46.9863 101.222 47.7787 102.467 48.2147C101.211 48.7435 100.426 49.5558 100.002 50.8423C99.5147 49.526 98.6801 48.6689 97.382 48.2545C99.4737 47.1554 99.0256 47.346 100.019 45.8606ZM99.9919 52.6692C100.476 54.0683 101.352 54.9287 102.766 55.3515C101.331 55.8389 100.428 56.7324 100.04 58.1399C99.749 57.7503 99.6909 57.2861 99.4121 56.928C99.123 56.5583 98.8032 56.2268 98.415 55.9566C98.025 55.683 97.5701 55.5554 97.1254 55.3995C97.1322 55.3647 97.1357 55.3299 97.1339 55.2934C98.5432 54.9569 99.4822 54.1098 99.9919 52.6692ZM114.68 39.3637C115.128 40.1097 115.686 40.6734 116.479 41.0945C115.691 41.5288 115.137 42.1173 114.68 42.918C114.22 42.0659 113.597 41.5172 112.778 41.0796C113.597 40.685 114.199 40.1462 114.68 39.3637ZM112.939 33.9312C113.753 33.5167 114.326 32.9531 114.784 32.1723C115.224 32.8785 115.732 33.4106 116.467 33.8151C115.718 34.2611 115.138 34.7982 114.697 35.5492C114.217 34.8827 113.705 34.3108 112.939 33.9312ZM113.839 47.4919C114.182 47.2134 114.418 46.8304 114.69 46.3662C115.12 47.2034 115.725 47.7803 116.614 48.2147C115.73 48.7137 115.132 49.3304 114.694 50.2156C114.211 49.3271 113.584 48.6789 112.674 48.2594C113.098 47.9826 113.496 47.7687 113.839 47.4919ZM114.683 53.2908C115.173 54.2507 115.838 54.9205 116.825 55.3564C115.848 55.8422 115.162 56.5235 114.718 57.5132C113.862 56.187 113.789 56.119 112.419 55.3399C113.426 54.9453 114.175 54.3037 114.683 53.2908ZM114.863 65.8652C114.86 65.8917 114.858 65.9182 114.856 65.9431C114.856 65.9166 114.856 65.89 114.86 65.8635C114.86 65.716 114.863 65.4922 114.858 65.3446C114.738 63.967 113.828 63.1497 112.628 62.5048C113.565 62.1003 114.196 61.4621 114.714 60.5768C115.181 61.6594 116.033 62.1998 116.958 62.6772C115.407 63.7548 115.058 64.2008 114.866 65.3446C114.865 65.3513 114.865 65.3562 114.863 65.3629V65.8652ZM114.801 28.4621C114.386 27.7526 113.886 27.242 113.238 26.8226C114.263 26.1727 114.942 25.2891 115.265 24.0325C115.711 25.3024 116.525 26.0219 117.83 26.3932C116.469 26.685 115.427 27.2486 114.801 28.4621ZM75.4233 26.6899C75.4404 26.6816 75.4541 26.67 75.4626 26.6518C75.449 26.6651 75.437 26.6767 75.4233 26.6899ZM77.7459 22.0083C77.7579 22.0216 77.7716 22.0332 77.7835 22.0465C77.775 22.0299 77.763 22.015 77.7459 22.0083ZM75.4233 26.6899C75.4404 26.6816 75.4541 26.67 75.4626 26.6518C75.449 26.6651 75.437 26.6767 75.4233 26.6899ZM77.7459 22.0083C77.7579 22.0216 77.7716 22.0332 77.7835 22.0465C77.775 22.0299 77.763 22.015 77.7459 22.0083ZM75.4233 26.6899C75.4404 26.6816 75.4541 26.67 75.4626 26.6518C75.449 26.6651 75.437 26.6767 75.4233 26.6899ZM77.7459 22.0083C77.7579 22.0216 77.7716 22.0332 77.7835 22.0465C77.775 22.0299 77.763 22.015 77.7459 22.0083ZM75.4233 26.6899C75.4404 26.6816 75.4541 26.67 75.4626 26.6518C75.449 26.6651 75.437 26.6767 75.4233 26.6899ZM77.7459 22.0083C77.7579 22.0216 77.7716 22.0332 77.7835 22.0465C77.775 22.0299 77.763 22.015 77.7459 22.0083ZM75.4233 26.6899C75.4404 26.6816 75.4541 26.67 75.4626 26.6518C75.449 26.6651 75.437 26.6767 75.4233 26.6899ZM77.7459 22.0083C77.7579 22.0216 77.7716 22.0332 77.7835 22.0465C77.775 22.0299 77.763 22.015 77.7459 22.0083ZM75.4233 26.6899C75.4404 26.6816 75.4541 26.67 75.4626 26.6518C75.449 26.6651 75.437 26.6767 75.4233 26.6899ZM77.7459 22.0083C77.7579 22.0216 77.7716 22.0332 77.7835 22.0465C77.775 22.0299 77.763 22.015 77.7459 22.0083ZM75.4233 26.6899C75.4404 26.6816 75.4541 26.67 75.4626 26.6518C75.449 26.6651 75.437 26.6767 75.4233 26.6899ZM77.7459 22.0083C77.7579 22.0216 77.7716 22.0332 77.7835 22.0465C77.775 22.0299 77.763 22.015 77.7459 22.0083ZM75.4233 26.6899C75.4404 26.6816 75.4541 26.67 75.4626 26.6518C75.449 26.6651 75.437 26.6767 75.4233 26.6899ZM77.7459 22.0083C77.7579 22.0216 77.7716 22.0332 77.7835 22.0465C77.775 22.0299 77.763 22.015 77.7459 22.0083ZM75.4233 26.6899C75.4404 26.6816 75.4541 26.67 75.4626 26.6518C75.449 26.6651 75.437 26.6767 75.4233 26.6899ZM77.7459 22.0083C77.7579 22.0216 77.7716 22.0332 77.7835 22.0465C77.775 22.0299 77.763 22.015 77.7459 22.0083ZM75.4233 26.6899C75.4404 26.6816 75.4541 26.67 75.4626 26.6518C75.449 26.6651 75.437 26.6767 75.4233 26.6899ZM77.7459 22.0083C77.7579 22.0216 77.7716 22.0332 77.7835 22.0465C77.775 22.0299 77.763 22.015 77.7459 22.0083ZM77.7459 22.0083C77.7579 22.0216 77.7716 22.0332 77.7835 22.0465C77.775 22.0299 77.763 22.015 77.7459 22.0083ZM77.7459 22.0083C77.7579 22.0216 77.7716 22.0332 77.7835 22.0465C77.775 22.0299 77.763 22.015 77.7459 22.0083Z" fill="white"/>
<path d="M107.449 72.7225C107.444 72.8269 107.46 73.4751 107.441 73.563C107.436 73.5912 107.424 73.6194 107.405 73.6442C106.633 77.8152 100.824 77.734 100.086 73.6426C99.8778 73.4105 99.9564 73.1071 99.9479 72.8253C99.9564 72.759 99.9667 72.6943 99.9787 72.6313V72.6181C99.9821 72.5948 99.9872 72.5716 99.9924 72.5484C100.244 71.2835 101.01 70.3933 102.247 69.8446C102.515 69.7219 102.797 69.6473 103.091 69.6572C103.127 69.6639 104.391 69.6539 104.396 69.6622C104.432 69.6639 104.467 69.6672 104.502 69.6705H104.508C105.948 69.8164 107.157 70.9901 107.413 72.4772C107.429 72.5584 107.441 72.6396 107.449 72.7225Z" fill="white"/>
<path d="M70.4996 22.6811V23.883C70.4996 23.883 70.4996 23.8946 70.4979 23.9012C70.4945 23.9609 70.4893 24.0206 70.4791 24.0786V24.0819C70.2995 25.3335 69.0287 26.5702 67.6348 26.8255C67.5852 26.8388 67.5322 26.8521 67.4809 26.867L67.4723 26.8686L67.4689 26.8703L67.4587 26.8736C67.1662 26.9383 66.8583 26.9267 66.5625 26.9051C66.5283 26.8952 66.4975 26.8836 66.465 26.8686C66.4308 26.857 66.3948 26.8438 66.3624 26.8289C66.2067 26.7626 66.0562 26.688 65.8835 26.6664C64.0312 26.058 62.8237 24.2742 63.3317 22.3992C63.6789 20.8807 64.7837 20.0253 66.3401 19.6888C66.3675 19.6689 66.3983 19.6589 66.429 19.6523C66.4975 19.6374 67.2842 19.649 67.3731 19.6457C68.8526 19.6987 70.2123 20.8873 70.4808 22.3246V22.328C70.4876 22.3644 70.4945 22.4026 70.4996 22.439V22.5004C70.5013 22.5601 70.4996 22.6214 70.4996 22.6811Z" fill="white"/>
<path d="M85.2688 45.1896V45.1962C85.2671 45.2343 85.2671 45.2708 85.2688 45.3089V45.4034C85.2688 45.4581 85.2688 45.5145 85.2671 45.5709C84.8242 47.0811 83.8099 47.9548 82.2518 48.225H82.2416C82.2262 48.2267 82.2108 48.2283 82.1954 48.2316C82.1629 48.2366 82.1304 48.2416 82.0962 48.2465C81.8328 48.2316 81.5558 48.293 81.2992 48.225C81.2137 48.2018 81.1299 48.1653 81.0495 48.1056C76.9585 47.3961 77.0234 41.927 81.0495 41.1313C81.1162 41.0816 81.1932 41.0816 81.2736 41.0832H82.192C83.6201 41.1346 84.961 42.3249 85.2757 43.7805C85.2723 43.8136 85.2705 43.8468 85.2705 43.8783C85.2671 43.8982 85.2705 43.9164 85.2705 43.9363C85.2705 44.059 85.2911 44.1816 85.3133 44.3043C85.315 44.3159 85.3167 44.3292 85.3201 44.3408C85.3219 44.3507 85.3236 44.3607 85.3253 44.3706C85.3561 44.6458 85.2808 44.916 85.2688 45.1896Z" fill="white"/>
<path d="M99.9782 66.5293C99.9782 66.6172 99.9799 66.783 99.9782 66.8708V66.9521C99.6566 68.3645 98.4799 69.399 96.9133 69.6659C96.9013 69.6692 96.8876 69.6708 96.874 69.6725L96.8551 69.6775C96.8055 69.6841 96.7542 69.6907 96.7046 69.6974C96.5062 69.6891 96.3027 69.7206 96.1112 69.6725C96.0291 69.6526 95.9504 69.6178 95.8751 69.5598C91.8132 68.8917 91.6079 63.5055 95.6477 62.5755C95.6802 62.5539 95.7144 62.5423 95.7486 62.5374C95.8272 62.5241 95.9076 62.5374 95.9863 62.5324C96.0992 62.5324 96.7662 62.534 96.8654 62.5307C96.8774 62.5307 96.8928 62.5307 96.9048 62.5291C96.9783 62.5274 97.0501 62.5059 97.1237 62.4976C97.1305 62.4976 97.1356 62.4959 97.1425 62.4959L97.2092 62.5108C98.6749 62.8325 99.5369 63.7658 99.9782 65.1235C99.9799 65.1617 99.9799 65.1998 99.9799 65.2379C99.9799 65.2578 99.9799 65.2777 99.9799 65.2959C99.9799 65.3125 99.9799 65.3291 99.9799 65.344C99.9833 65.4136 99.9799 65.4833 99.9833 65.5529C99.9867 65.8795 100.002 66.2044 99.9816 66.5293H99.9782Z" fill="white"/>
<path d="M77.8707 37.7982C77.8519 37.9557 77.816 38.1116 77.7527 38.2657C76.889 41.7355 71.6418 41.9477 70.7028 38.2243C70.2479 36.3444 71.5751 34.4843 73.4103 34.0483C73.5642 33.9853 73.7215 33.9505 73.8789 33.9306C74.1816 33.8908 74.4895 33.9124 74.7973 33.9273C74.8264 33.929 74.8538 33.9306 74.8828 33.9306C74.941 33.9339 75.0008 33.9356 75.059 33.9372C76.6137 34.3384 77.6689 35.3928 77.8588 36.7654C77.8605 36.792 77.8605 36.8168 77.8622 36.8434C77.8622 36.85 77.8622 36.8555 77.8639 36.8621L77.8639 36.8682C77.8793 37.1799 77.9084 37.4916 77.8707 37.7982Z" fill="white"/>
<path d="M92.5741 59.3858C92.1825 62.0996 88.7054 63.4226 86.6034 61.536C84.4963 59.7307 85.3703 56.1979 88.1222 55.5149C88.3001 55.3922 88.5241 55.5282 88.7037 55.4171C88.8388 55.2894 89.0064 55.3789 89.1586 55.3524C89.2117 55.3557 89.2647 55.3657 89.316 55.3823C89.5024 55.432 89.6974 55.3674 89.8855 55.4171C91.3205 55.7619 92.5245 56.9174 92.6254 58.3829C92.6306 58.6365 92.6254 58.8902 92.6271 59.1438C92.6254 59.2283 92.6391 59.3145 92.5775 59.3875L92.5741 59.3858Z" fill="white"/>
<path d="M70.4797 30.6486C70.4729 30.6834 70.4626 30.7166 70.4489 30.7514C70.0384 32.7955 68.1554 34.2444 65.8619 33.6343C62.2138 32.5451 62.5387 27.6663 66.221 26.8722C66.2655 26.839 66.3117 26.8274 66.3596 26.8258C66.4246 26.8208 66.493 26.8324 66.558 26.8274C66.7461 26.8258 67.2506 26.8324 67.4319 26.8241C67.4439 26.8241 67.4542 26.8241 67.4661 26.8224H67.473C67.5243 26.8191 67.5773 26.8175 67.6303 26.8224C68.8378 26.8788 70.4763 28.3957 70.4968 29.828C70.5002 29.8661 70.4985 29.9043 70.4968 29.9424C70.4746 30.1778 70.5361 30.4165 70.4797 30.6486Z" fill="white"/>
<path d="M99.9731 73.4461C99.9611 73.587 99.9355 73.7263 99.8859 73.8655C99.1162 77.3403 93.8724 77.8177 92.8497 73.9849C92.3109 71.8082 93.8228 70.1537 95.8735 69.7559C95.9504 69.7128 96.0308 69.6858 96.1112 69.6725C96.3421 69.6311 96.5815 69.6829 96.8159 69.6647C96.8261 69.6664 96.8381 69.668 96.8484 69.6697C96.8569 69.6713 96.8637 69.6713 96.8706 69.673L96.874 69.6725C96.8894 69.6758 96.9031 69.678 96.9168 69.6813C98.6288 69.9697 99.8418 71.126 99.9787 72.6181L99.9799 72.6388C99.9697 72.9073 99.9953 73.1792 99.9731 73.4461Z" fill="white"/>
<path d="M85.2576 51.895L85.2563 51.9013C85.2443 52.0754 85.217 52.2478 85.1622 52.4169C84.4182 55.9563 78.9983 56.2945 78.1209 52.4418C77.6677 50.3563 79.13 48.7151 81.0455 48.3139C81.1276 48.2675 81.2114 48.2409 81.2952 48.226L81.2992 48.225C81.5609 48.1769 81.8305 48.241 82.0922 48.2144C82.1264 48.2144 82.1589 48.2177 82.1931 48.2194C82.2085 48.2211 82.2239 48.2211 82.2393 48.2227L82.2518 48.225C83.7073 48.3543 84.9912 49.5771 85.2512 51.0924C85.258 51.1239 85.2614 51.1537 85.2666 51.1852C85.2666 51.4223 85.2781 51.6596 85.2576 51.895Z" fill="white"/>
<path d="M74.2486 41.213C76.2445 41.1881 77.7941 42.8343 77.7736 44.6529C77.6692 49.1919 70.7202 49.182 70.6843 44.6081C70.6895 42.7382 72.2629 41.1732 74.2486 41.213Z" fill="white"/>
<path d="M59.5861 19.7838C61.5615 19.7971 63.0239 21.2245 62.9965 23.2337C62.8648 28.0264 55.9483 27.5987 55.9808 23.1359C56.0082 21.372 57.4876 19.7043 59.5861 19.7838Z" fill="white"/>
<path d="M88.9542 69.474C86.8711 69.4923 85.4515 67.7947 85.4908 65.9927C85.655 61.4768 92.3594 61.4851 92.5219 66.0673C92.5151 68.0864 90.7586 69.5238 88.9542 69.474Z" fill="white"/>
<path d="M92.7959 80.3434C92.8284 78.5911 94.2463 76.9582 96.338 76.9532C101.011 77.1107 101.04 83.6026 96.338 83.7866C94.3882 83.7866 92.7857 82.23 92.7959 80.3434Z" fill="white"/>
<path d="M63.3359 37.459C63.3445 35.5857 64.9231 34.0622 66.8592 34.0622C71.4975 34.2015 71.595 40.7497 66.8318 40.8691C64.8649 40.8575 63.3291 39.3439 63.3359 37.459Z" fill="white"/>
<path d="M78.0923 58.9366C78.118 57.1959 79.464 55.5381 81.5899 55.5116C86.2573 55.5713 86.3497 62.1775 81.6361 62.3085C79.6966 62.3301 78.0991 60.7999 78.0923 58.9366Z" fill="white"/>
<path d="M77.7193 51.748C77.7107 53.4721 76.428 55.1415 74.2046 55.1282C69.5491 55.0735 69.6552 48.3826 74.2439 48.3727C76.4263 48.3893 77.7039 50.0603 77.7193 51.748Z" fill="white"/>
<path d="M62.9316 30.3348C62.9111 32.3507 61.4197 33.6669 59.5367 33.6802C54.9428 33.6321 54.8675 27.0142 59.5315 26.938C61.4659 26.9479 62.9265 28.2891 62.9316 30.3348Z" fill="white"/>
<path d="M89.0597 69.8624C90.5853 69.8093 92.5009 71.1372 92.4701 73.2194C92.2854 77.7584 85.4732 77.6391 85.5485 73.1498C85.5827 70.9002 87.423 69.7745 89.0597 69.8624Z" fill="white"/>
<path d="M70.3168 44.6397C70.3271 46.309 69.0564 47.99 66.8535 47.9784C62.1501 47.8873 62.3913 41.3174 66.8398 41.2843C68.9777 41.271 70.3305 42.9404 70.3168 44.6397Z" fill="white"/>
<path d="M85.0674 66.0983C85.1067 67.8688 83.5983 69.4139 81.6228 69.4089C76.9195 69.2216 77.135 62.7446 81.722 62.6899C83.4768 62.7313 85.1632 64.2101 85.0674 66.0983Z" fill="white"/>
<path d="M74.2207 55.6148C75.9738 55.5502 77.6602 56.9941 77.6602 58.9321C77.5661 63.2092 70.9677 63.433 70.8018 58.942C70.783 56.83 72.6045 55.5468 74.2207 55.6148Z" fill="white"/>
<path d="M59.5255 34.1451C61.3606 34.2081 62.8794 35.3818 62.8828 37.459C62.8999 41.9367 56.122 41.7908 56.1032 37.4756C56.098 35.4531 57.7485 34.1551 59.5255 34.1451Z" fill="white"/>
<path d="M89.0006 77.0653C90.7469 77.0355 92.4281 78.4545 92.411 80.414C92.2229 84.8254 85.6074 84.7359 85.6142 80.3461C85.6296 78.5772 86.9996 77.0371 89.0006 77.0653Z" fill="white"/>
<path d="M63.478 51.7368C63.4335 50.0508 64.9026 48.4544 66.8849 48.4627C71.3693 48.6318 71.3676 54.938 66.8421 55.0424C64.788 55.0292 63.4078 53.3813 63.478 51.7368Z" fill="white"/>
<path d="M85.0372 73.1759C85.0441 75.1039 83.4586 76.4732 81.673 76.5047C77.0928 76.3737 77.1202 70.0228 81.6508 69.9332C83.5168 69.9448 85.0321 71.3473 85.0372 73.1759Z" fill="white"/>
<path d="M48.7681 30.3181C48.715 28.6487 50.1534 27.0158 52.1545 27.0208C54.0409 27.0257 55.5306 28.4945 55.5409 30.3264C55.5494 31.8781 54.2924 33.579 52.175 33.6005C50.162 33.6204 48.7356 32.0107 48.7681 30.3181Z" fill="white"/>
<path d="M70.8836 66.0277C70.7964 64.3981 72.2724 62.7785 74.2358 62.7834C78.7254 62.9426 78.6895 69.2156 74.1948 69.3101C72.4451 69.3002 70.7981 67.8927 70.8836 66.0277Z" fill="white"/>
<path d="M59.5014 41.3774C61.1296 41.3708 62.8313 42.4964 62.8125 44.6499C62.6843 49.1541 56.2398 48.7695 56.1611 44.6615C56.144 42.9556 57.5858 41.3725 59.5014 41.3774Z" fill="white"/>
<path d="M84.9618 80.3927C84.9977 82.2958 83.219 83.6486 81.5617 83.5956C77.1696 83.3237 77.2431 77.2578 81.6694 77.1368C83.6175 77.1517 85.0268 78.7565 84.9618 80.3927Z" fill="white"/>
<path d="M52.1821 34.262C53.8736 34.1774 55.5018 35.6479 55.4915 37.4814C55.4813 39.2486 53.9762 40.7224 52.1581 40.7058C50.4803 40.6892 48.847 39.5205 48.823 37.4864C48.7991 35.4605 50.5539 34.1625 52.1821 34.262Z" fill="white"/>
<path d="M66.894 55.713C68.6385 55.6484 70.2188 57.1603 70.2 58.949C70.0888 63.0836 63.6376 63.3007 63.5315 58.8943C63.5486 56.7757 65.3975 55.6152 66.894 55.713Z" fill="white"/>
<path d="M103.741 83.5864C101.896 83.5864 100.417 82.1525 100.42 80.367C100.567 76.1098 106.945 76.1032 107.071 80.3753C107.071 82.169 105.597 83.5864 103.741 83.5864Z" fill="white"/>
<path d="M77.5256 8.88014C77.594 10.4136 76.2291 12.0631 74.2401 12.0697C69.9643 11.9951 69.6975 5.83146 74.2161 5.67232C76.4463 5.66403 77.6059 7.45444 77.5256 8.88014Z" fill="white"/>
<path d="M55.4496 23.1908C55.4615 24.9597 54.0078 26.4036 52.1948 26.4218C47.825 26.3489 47.7668 20.1438 52.1435 20.0112C53.965 20.0078 55.4393 21.4253 55.4496 23.1908Z" fill="white"/>
<path d="M77.5187 73.2383C77.5084 75.0088 76.041 76.403 74.2007 76.3931C69.8975 76.2638 69.7812 70.1714 74.252 70.0338C75.9178 70.0388 77.5939 71.3733 77.5187 73.2383Z" fill="white"/>
<path d="M59.5267 54.9468C57.7326 54.9402 56.2344 53.6388 56.219 51.7738C56.1848 47.752 62.6172 47.2812 62.7626 51.7406C62.7746 53.8775 61.095 54.9385 59.5267 54.9468Z" fill="white"/>
<path d="M66.8355 62.8843C68.6381 62.8727 70.1192 64.2702 70.1364 66.0042C70.0833 70.1686 63.7672 70.3228 63.603 66.0639C63.603 64.3017 65.0259 62.8959 66.8355 62.8843Z" fill="white"/>
<path d="M81.6191 90.6571C79.8199 90.6521 78.3678 89.2364 78.3713 87.4924C78.5543 83.2418 84.7456 83.3297 84.9166 87.5173C84.9063 89.2298 83.403 90.6604 81.6191 90.6571Z" fill="white"/>
<path d="M59.455 19.1714C57.8062 19.1996 56.2328 17.7855 56.2653 15.9669C56.2943 14.3273 57.6677 12.837 59.5679 12.8619C61.1413 12.8818 62.7456 14.0273 62.7268 16.0747C62.708 18.1253 60.9258 19.256 59.455 19.1714Z" fill="white"/>
<path d="M122.677 44.0179C123.277 41.3074 126.999 40.5747 128.576 42.9321C129.381 44.1373 129.241 45.7072 128.268 46.7616C127.472 47.6236 126.479 47.8806 125.345 47.7314C123.836 47.5324 123.051 46.5842 122.666 45.2397C122.607 45.1618 122.62 45.0723 122.619 44.9844C122.619 44.7772 122.619 44.57 122.619 44.3611C122.631 44.2467 122.584 44.1207 122.677 44.0179Z" fill="white"/>
<path d="M44.6862 40.5971C43.0956 40.6087 41.5033 39.3256 41.5187 37.4324C41.6897 33.3708 47.8451 33.2929 47.9666 37.4921C47.9512 39.4963 46.2374 40.6684 44.6862 40.5971Z" fill="white"/>
<path d="M56.2961 58.9205C56.2431 57.4501 57.4831 55.8089 59.5081 55.7956C63.7856 55.9 63.712 61.9758 59.5081 62.0322C57.6114 62.0239 56.2585 60.5352 56.2961 58.9205Z" fill="white"/>
<path d="M77.4177 80.395C77.4502 82.1241 75.9006 83.4619 74.2143 83.4636C72.4732 83.4636 71.0245 82.0512 71.0245 80.3652C71.0245 78.6693 72.4612 77.2834 74.216 77.2734C76.1537 77.2618 77.5049 78.898 77.4177 80.395Z" fill="white"/>
<path d="M63.6768 73.2296C63.6358 71.2551 65.3752 70.1378 66.8341 70.1345C70.9901 70.1726 71.2432 76.134 66.8665 76.2915C65.0143 76.2965 63.6768 74.9006 63.6768 73.2296Z" fill="white"/>
<path d="M88.9587 90.5932C87.1885 90.5402 85.822 89.3366 85.8494 87.4666C85.9212 83.2641 92.1433 83.5161 92.1792 87.528C92.1758 89.2255 90.7066 90.6015 88.9587 90.5932Z" fill="white"/>
<path d="M74.2297 84.4508C75.9109 84.3646 77.4177 85.8334 77.4023 87.5211C77.3869 89.1722 75.9417 90.5731 74.2262 90.5581C72.7058 90.5449 71.0827 89.4889 71.0605 87.5178C71.0382 85.5317 72.7605 84.3646 74.2297 84.4508Z" fill="white"/>
<path d="M47.881 30.3948C47.9169 31.8884 46.576 33.3821 44.7374 33.3738C40.6498 33.2876 40.4788 27.3627 44.7888 27.2615C46.7796 27.2831 47.999 28.9326 47.881 30.3948Z" fill="white"/>
<path d="M62.6173 66.0899C62.6994 67.9582 60.9635 69.1419 59.4687 69.1004C55.2305 68.8949 55.4221 63.0445 59.5559 62.9849C61.0011 62.9931 62.7319 64.1652 62.6173 66.0899Z" fill="white"/>
<path d="M125.788 54.78C123.933 54.78 122.665 53.2581 122.711 51.6832C122.761 50.0254 124.186 48.6793 125.951 48.7224C127.593 48.7622 129.029 50.1083 128.986 51.8142C128.944 53.535 127.562 54.8231 125.788 54.78Z" fill="white"/>
<path d="M55.2779 58.9508C55.2694 60.6136 53.8755 61.9415 52.1412 61.9365C47.9715 61.7807 48.0433 56.0049 52.1942 55.9071C53.9131 55.9287 55.2848 57.2831 55.2779 58.9508Z" fill="white"/>
<path d="M52.1464 41.655C53.8824 41.6202 55.2574 42.9813 55.2557 44.6507C55.254 46.4643 53.6737 47.7043 52.1618 47.6877C50.4703 47.6678 49.0559 46.3201 49.0507 44.6656C49.0456 43.0476 50.3933 41.6219 52.1464 41.655Z" fill="white"/>
<path d="M62.5892 73.2123C62.5789 74.8717 61.226 76.1748 59.5123 76.1731C55.3956 76.0338 55.4777 70.2929 59.5243 70.2531C61.185 70.2581 62.596 71.4351 62.5892 73.2123Z" fill="white"/>
<path d="M52.1394 48.7753C53.8206 48.7703 55.2282 50.1363 55.2231 51.7659C55.0623 55.6767 49.2644 55.7048 49.0865 51.7842C49.0745 50.1512 50.465 48.7803 52.1394 48.7753Z" fill="white"/>
<path d="M40.3522 44.6693C40.4446 45.9889 39.2149 47.6235 37.3164 47.6152C35.6677 47.6086 34.2943 46.2276 34.3012 44.6212C34.308 43.0099 35.6968 41.6869 37.366 41.6903C39.0336 41.6936 40.4412 43.0944 40.3522 44.6693Z" fill="white"/>
<path d="M52.1956 63.1254C53.6887 63.079 55.1852 64.3489 55.1749 66.0514C55.0757 69.9306 49.1889 69.9538 49.1222 66.0199C49.1324 64.2179 50.723 63.0425 52.1956 63.1254Z" fill="white"/>
<path d="M122.891 36.8226C123.323 35.1648 124.866 34.3989 126.197 34.5481C129.71 35.0156 129.756 39.7121 126.46 40.3503C124.779 40.6786 123.238 39.6424 122.884 38.046C122.735 37.6382 122.776 37.2304 122.891 36.8226Z" fill="white"/>
<path d="M41.8091 44.6408C41.7424 43.0742 43.2304 41.738 44.7782 41.7811C46.3859 41.8259 47.7114 43.0791 47.7199 44.6391C47.7285 46.1925 46.3431 47.5419 44.7491 47.5485C43.1825 47.5552 41.7304 46.1726 41.8091 44.6408Z" fill="white"/>
<path d="M49.2217 73.1932C49.1789 71.5487 50.5027 70.375 52.1377 70.3717C56.0492 70.3766 56.0749 75.9418 52.1668 76.0612C50.4685 76.0579 49.1533 74.7134 49.2217 73.1932Z" fill="white"/>
<path d="M47.6403 66.0902C47.6318 67.6004 46.3969 68.857 44.7106 68.8504C43.0875 68.8438 41.7979 67.5441 41.8287 65.9725C41.8578 64.444 43.2004 63.2122 44.8046 63.2404C46.426 63.2686 47.6643 64.5136 47.6403 66.0902Z" fill="white"/>
<path d="M40.2406 37.4993C40.3005 38.8139 39.1152 40.2976 37.3399 40.2943C33.514 40.1451 33.4883 34.8302 37.328 34.6595C38.951 34.6429 40.2475 35.9078 40.2406 37.4993Z" fill="white"/>
<path d="M66.8606 90.254C65.2735 90.254 63.9976 89.0189 64.0044 87.4937C64.0113 85.9686 65.2974 84.7252 66.8675 84.7285C68.4358 84.7318 69.7271 85.9835 69.7271 87.5004C69.7271 89.0239 68.4461 90.254 66.8606 90.254Z" fill="white"/>
<path d="M47.5603 73.2105C47.5552 74.7423 46.3203 75.9326 44.7417 75.9293C41.0047 75.8282 41.0064 70.5498 44.7486 70.5083C46.2707 70.5083 47.5791 71.5942 47.5603 73.2105Z" fill="white"/>
<path d="M44.7269 61.6261C43.1431 61.6676 41.9151 60.3331 41.9391 58.8875C42.0998 55.3133 47.4275 55.305 47.5592 58.9289C47.5643 60.3347 46.3431 61.6875 44.7269 61.6261Z" fill="white"/>
<path d="M66.8791 91.9682C68.3893 91.9682 69.6669 93.1453 69.6533 94.6754C69.5369 98.3225 64.117 98.2032 64.0605 94.6389C64.0605 93.1685 65.3484 91.9599 66.8791 91.9682Z" fill="white"/>
<path d="M52.1395 83.0482C50.826 83.078 49.3842 82.0718 49.3671 80.3526C49.521 76.8365 54.8093 76.8 54.9239 80.3758C54.9239 82.1447 53.4171 83.0897 52.1395 83.0482Z" fill="white"/>
<path d="M42.0275 80.3686C42.0326 78.9097 43.2401 77.7493 44.7469 77.7443C48.3368 77.8321 48.4052 82.963 44.7247 83.0078C42.9784 82.9829 42.007 81.6617 42.0275 80.3686Z" fill="white"/>
<path d="M103.75 11.4961C102.264 11.4977 101.01 10.3074 101.038 8.86514C101.233 5.23293 106.379 5.51143 106.461 8.86017C106.463 10.3074 105.243 11.4944 103.75 11.4961Z" fill="white"/>
<path d="M69.5493 80.3918C69.5442 81.839 68.3709 83.0326 66.8812 82.9962C63.1596 82.8652 63.3802 77.804 66.8727 77.7443C68.4325 77.7459 69.6468 79.0539 69.5493 80.3918Z" fill="white"/>
<path d="M69.5364 8.86324C69.5346 10.2989 68.3408 11.4643 66.8683 11.4693C65.4025 11.4743 64.1882 10.3022 64.178 8.87485C64.1694 7.41931 65.3923 6.22901 66.8837 6.24393C68.3614 6.25885 69.5381 7.42096 69.5364 8.86324Z" fill="white"/>
<path d="M128.527 58.9745C128.555 60.3521 127.308 61.5457 125.822 61.5209C122.262 61.3302 122.324 56.3917 125.928 56.3204C127.356 56.3519 128.594 57.5107 128.527 58.9745Z" fill="white"/>
<path d="M40.0201 73.1908C40.0252 74.633 38.8537 75.7952 37.3674 75.7935C33.9023 75.8117 33.6834 70.6809 37.3264 70.656C38.9358 70.6345 39.991 71.7352 40.0201 73.1908Z" fill="white"/>
<path d="M56.8565 94.6285C56.7881 93.5344 57.8075 92.0822 59.5195 92.0905C63.0923 92.1584 63.065 97.2628 59.4836 97.2561C57.8725 97.2445 56.8069 95.9929 56.8565 94.6285Z" fill="white"/>
<path d="M93.6947 87.4973C93.6331 86.1876 94.82 84.9028 96.3679 84.9194C99.7782 85.0355 99.9493 89.9674 96.3149 90.0619C94.6815 90.0486 93.6399 88.7589 93.6947 87.4973Z" fill="white"/>
<path d="M27.3334 51.7589C27.2821 50.5421 28.4006 49.2092 29.969 49.1959C33.3571 49.2821 33.6495 54.1345 29.957 54.3268C28.3065 54.3268 27.2667 52.8978 27.3334 51.7589Z" fill="white"/>
<path d="M74.2403 92.1942C75.6222 92.1245 76.8519 93.3397 76.8177 94.7256C76.6587 97.9865 71.709 97.9799 71.6218 94.6875C71.603 93.2419 72.8481 92.1245 74.2403 92.1942Z" fill="white"/>
<path d="M39.9197 80.3871C39.9146 81.768 38.7738 82.8522 37.332 82.8456C33.9029 82.7046 33.9439 78.0081 37.3611 77.8987C38.7944 77.9103 39.9249 79.0094 39.9197 80.3871Z" fill="white"/>
<path d="M37.3222 63.5888C38.7196 63.5805 39.8877 64.6697 39.8945 66.0158C39.9151 69.1839 34.9295 69.4939 34.8047 66.0622C34.7995 64.4194 36.1763 63.5756 37.3222 63.5888Z" fill="white"/>
<path d="M59.5036 77.9456C60.9335 77.9423 62.0417 79.005 62.04 80.3809C61.9562 83.6004 57.1041 83.6186 56.9895 80.4041C56.9775 79.0282 58.0807 77.949 59.5036 77.9456Z" fill="white"/>
<path d="M29.9909 42.2234C31.4071 42.172 32.529 43.4154 32.5 44.677C32.3101 47.908 27.6222 47.8848 27.4665 44.6604C27.4546 43.3972 28.544 42.172 29.9909 42.2234Z" fill="white"/>
<path d="M29.968 78.0556C31.1926 77.9993 32.3983 79.0437 32.3898 80.3948C32.3675 83.334 27.6659 83.5993 27.5787 80.3633C27.5855 78.7983 28.9692 78.0009 29.968 78.0556Z" fill="white"/>
<path d="M120.855 73.2041C120.927 74.2916 119.891 75.573 118.442 75.5482C117.113 75.525 116.078 74.5286 116.058 73.2289C116.041 72.1746 116.793 70.8964 118.474 70.9147C119.849 70.9312 120.855 71.8944 120.855 73.2041Z" fill="white"/>
<path d="M128.222 30.299C128.223 31.5622 127.129 32.6215 125.834 32.6083C124.572 32.5967 123.484 31.534 123.481 30.3089C123.477 29.0523 124.579 27.998 125.88 28.0129C127.175 28.0261 128.22 29.0457 128.222 30.299Z" fill="white"/>
<path d="M111.019 82.6C109.884 82.6697 108.775 81.6087 108.775 80.3537C108.775 79.1585 109.858 78.1174 111.067 78.129C112.353 78.1422 113.381 79.1585 113.364 80.4001C113.345 81.665 112.341 82.6083 111.019 82.6Z" fill="white"/>
<path d="M44.7407 53.9662C43.4836 53.9629 42.4882 52.9781 42.478 51.753C42.5378 48.8834 46.9213 48.7856 47.024 51.7696C47.0291 52.9848 45.9926 53.9695 44.7407 53.9662Z" fill="white"/>
<path d="M32.2431 87.5321C32.2294 88.5466 31.4581 89.6789 29.9752 89.6739C26.9343 89.6126 27.0164 85.3852 29.9872 85.3073C31.2357 85.309 32.2551 86.3152 32.2431 87.5321Z" fill="white"/>
<path d="M32.2373 73.2103C32.2288 74.3906 31.1974 75.3936 29.9865 75.3969C28.7466 75.4002 27.7084 74.3657 27.7375 73.1605C27.7683 71.9454 28.7688 70.9988 30.0105 71.0154C31.247 71.0303 32.2459 72.0133 32.2373 73.2103Z" fill="white"/>
<path d="M79.4276 94.6557C79.3832 93.4704 80.4658 92.4973 81.6801 92.5222C82.8927 92.547 83.8693 93.5119 83.8522 94.6939C83.8385 95.7002 83.1133 96.8109 81.6391 96.8274C80.2623 96.8424 79.3814 95.7499 79.4276 94.6557Z" fill="white"/>
<path d="M37.3461 49.6329C38.4629 49.555 39.5626 50.538 39.5575 51.7482C39.5592 54.4952 35.2304 54.7588 35.138 51.7465C35.1363 50.3855 36.3404 49.55 37.3461 49.6329Z" fill="white"/>
<path d="M35.1652 87.4267C35.1943 86.0789 36.3915 85.323 37.4331 85.3628C40.2893 85.5617 40.2192 89.6084 37.2911 89.6034C36.0341 89.5702 35.1191 88.6336 35.1652 87.4267Z" fill="white"/>
<path d="M44.7589 25.2368C43.731 25.2998 42.6278 24.4543 42.6483 23.1795C42.6654 22.0058 43.5428 21.152 44.74 21.147C46.1476 21.1421 46.8574 22.2793 46.854 23.2143C46.8506 24.3002 45.8637 25.2948 44.7589 25.2368Z" fill="white"/>
<path d="M20.4905 87.4903C20.4957 86.3729 21.4483 85.4628 22.6011 85.4727C25.329 85.5987 25.3803 89.41 22.5805 89.5194C21.4261 89.541 20.4854 88.6109 20.4905 87.4903Z" fill="white"/>
<path d="M52.1678 17.9651C51.0612 17.9734 50.1343 17.0782 50.1411 16.0105C50.266 13.4576 54.0799 13.436 54.1467 16.0354C54.1398 17.1113 53.2727 17.9585 52.1678 17.9651Z" fill="white"/>
<path d="M24.4952 80.3621C24.5038 81.3916 23.6606 82.2238 22.5968 82.2338C21.5381 82.2454 20.6761 81.4248 20.6642 80.3936C20.6522 79.3807 21.521 78.5203 22.5643 78.5137C23.6093 78.5071 24.4867 79.3476 24.4952 80.3621Z" fill="white"/>
<path d="M44.7398 89.3489C43.6401 89.3987 42.7935 88.3626 42.8277 87.4972C42.9628 85.0205 46.5801 85.0801 46.6776 87.5071C46.6707 88.5267 45.8053 89.3523 44.7398 89.3489Z" fill="white"/>
<path d="M24.4952 51.7594C24.4952 52.7822 23.6401 53.6211 22.5882 53.6244C21.5381 53.6294 20.6744 52.7988 20.6641 51.7726C20.6539 50.7531 21.5176 49.906 22.5728 49.9043C23.6247 49.901 24.4952 50.7432 24.4952 51.7594Z" fill="white"/>
<path d="M39.2259 30.2898C39.2755 31.3209 38.4135 32.1349 37.3377 32.1631C36.3218 32.1896 35.4615 31.3309 35.4478 30.3345C35.4341 29.2968 36.2807 28.4695 37.3479 28.4728C38.4716 28.4745 39.2755 29.4029 39.2259 30.2898Z" fill="white"/>
<path d="M81.625 2.66312e-06C82.6307 -0.00165513 83.4414 0.770875 83.4448 1.73405C83.4482 2.6906 82.6341 3.48468 81.6438 3.49297C80.6519 3.50126 79.8326 2.71878 79.8207 1.75394C79.8087 0.794084 80.6245 0.00166045 81.625 2.66312e-06Z" fill="white"/>
<path d="M59.5016 89.239C58.5609 89.2406 57.7263 88.5643 57.7058 87.4801C57.6887 86.5169 58.5421 85.7377 59.5341 85.746C60.5312 85.756 61.3282 86.5434 61.3231 87.5116C61.3162 88.4913 60.5192 89.2473 59.5016 89.239Z" fill="white"/>
<path d="M22.4886 60.6491C21.5 60.601 20.744 59.8086 20.7902 58.8703C20.8381 57.9004 21.6933 57.1312 22.6664 57.1859C23.6139 57.239 24.4109 58.0811 24.3716 58.988C24.3288 59.9578 23.4891 60.6988 22.4886 60.6491Z" fill="white"/>
<path d="M90.7445 1.76494C90.736 2.70159 89.927 3.47412 88.9607 3.46252C86.6278 3.33487 86.6347 0.107153 88.9983 0.0358683C89.9766 0.0458151 90.7531 0.813372 90.7445 1.76494Z" fill="white"/>
<path d="M127.525 66.0443C127.525 66.9345 126.792 67.6589 125.875 67.6705C124.953 67.6838 124.17 66.9196 124.183 66.0227C124.199 65.1424 124.96 64.4196 125.866 64.4263C126.776 64.4329 127.525 65.1623 127.525 66.0443Z" fill="white"/>
<path d="M52.1695 93.0897C53.1136 93.0963 53.8114 93.7776 53.808 94.6944C53.8045 95.5664 53.0349 96.3074 52.1387 96.2992C51.2528 96.2909 50.4746 95.5217 50.4883 94.6646C50.5019 93.7611 51.2237 93.0847 52.1695 93.0897Z" fill="white"/>
<path d="M52.1659 103.391C51.2629 103.396 50.536 102.71 50.5223 101.84C50.5069 100.956 51.2731 100.204 52.1728 100.222C53.0604 100.238 53.7907 100.961 53.789 101.82C53.789 102.68 53.0587 103.387 52.1659 103.391Z" fill="white"/>
<path d="M59.5328 103.39C58.6127 103.395 57.908 102.722 57.8995 101.83C57.8926 100.943 58.599 100.233 59.5038 100.222C60.3657 100.21 61.1508 100.959 61.161 101.801C61.1713 102.655 60.4239 103.385 59.5328 103.39Z" fill="white"/>
<path d="M116.845 15.9924C116.854 15.1121 117.589 14.4092 118.482 14.4291C119.371 14.4507 120.1 15.1818 120.086 16.0405C120.072 16.9075 119.332 17.6005 118.431 17.5889C117.517 17.5773 116.838 16.8926 116.845 15.9924Z" fill="white"/>
<path d="M35.769 58.8971C35.7075 58.2224 36.4002 57.3587 37.375 57.3852C38.2439 57.4084 38.9588 58.1196 38.94 58.9552C38.9211 59.789 38.1703 60.4986 37.3169 60.4737C36.3694 60.4455 35.6989 59.6315 35.769 58.8971Z" fill="white"/>
<path d="M105.28 87.4907C105.287 88.3179 104.586 89.0076 103.737 89.0043C101.726 88.9181 101.685 86.1065 103.719 86.012C104.591 86.0037 105.273 86.6486 105.28 87.4907Z" fill="white"/>
<path d="M15.1734 93.1796C16.0422 93.1696 16.7298 93.8245 16.7366 94.6633C16.7417 95.4508 16.0439 96.1487 15.2333 96.1653C14.4174 96.1835 13.6974 95.5154 13.6752 94.7197C13.6512 93.8643 14.308 93.1879 15.1734 93.1796Z" fill="white"/>
<path d="M13.6932 87.5023C13.6932 86.68 14.3603 86.0169 15.1915 86.0119C16.0073 86.0069 16.7136 86.6783 16.729 87.4741C16.7444 88.2798 16.0073 89.0357 15.1932 88.9992C14.3055 88.9594 13.7069 88.3212 13.6932 87.5023Z" fill="white"/>
<path d="M90.4941 94.6607C90.5078 95.4316 89.8356 96.1079 89.0284 96.1328C88.2006 96.1593 87.4668 95.4946 87.4566 94.7071C87.4446 93.8964 88.1219 93.2184 88.9514 93.2085C89.786 93.1968 90.4787 93.8484 90.4941 94.6607Z" fill="white"/>
<path d="M24.0877 94.7021C24.0792 95.4747 23.3933 96.1345 22.5844 96.1328C21.6078 96.1328 21.0468 95.3188 21.0536 94.6673C21.0622 93.86 21.7617 93.2018 22.5929 93.2085C23.4275 93.2151 24.0963 93.8832 24.0877 94.7021Z" fill="white"/>
<path d="M29.9819 36.0251C30.8233 36.0268 31.4904 36.6882 31.475 37.5055C31.3689 39.4219 28.5059 39.3722 28.4836 37.4442C28.499 36.6518 29.1626 36.0235 29.9819 36.0251Z" fill="white"/>
<path d="M59.5423 7.41756C60.3496 7.43082 61.0183 8.10886 60.9944 8.88968C60.9704 9.67547 60.2709 10.3104 59.4602 10.2855C58.6769 10.2607 58.0321 9.60418 58.039 8.83828C58.0458 8.04918 58.7282 7.40595 59.5423 7.41756Z" fill="white"/>
<path d="M52.1482 88.9173C51.4076 88.9852 50.6688 88.2923 50.691 87.4816C50.7098 86.8185 51.187 86.1189 52.1396 86.0609C52.9007 86.0128 53.6772 86.7572 53.6498 87.5015C53.6242 88.231 53.0444 88.9653 52.1482 88.9173Z" fill="white"/>
<path d="M28.6972 58.9131C28.6493 58.2334 29.2599 57.6748 30.0022 57.6615C30.7051 57.6482 31.3054 58.2732 31.2917 58.9513C31.2764 59.6392 30.6726 60.2045 29.9645 60.1963C29.2411 60.188 28.6921 59.6309 28.6972 58.9131Z" fill="white"/>
<path d="M111.035 7.60066C111.765 7.59237 112.381 8.13944 112.363 8.83737C112.261 10.5979 109.767 10.4736 109.803 8.84235C109.834 8.11789 110.296 7.59735 111.035 7.60066Z" fill="white"/>
<path d="M66.8658 103.049C66.1834 103.065 65.5677 102.543 65.5762 101.791C65.6053 100.269 68.0186 100.11 68.1434 101.784C68.193 102.474 67.5927 103.047 66.8658 103.049Z" fill="white"/>
<path d="M31.2417 66.0476C31.2999 66.6444 30.7475 67.281 29.9966 67.2827C28.2863 67.2379 28.2983 64.8457 29.9966 64.8109C30.7098 64.8175 31.2417 65.3464 31.2417 66.0476Z" fill="white"/>
<path d="M31.2381 94.6834C31.2346 95.3647 30.6702 95.8869 29.9519 95.872C28.245 95.7758 28.3408 93.4732 30.0015 93.4384C30.7044 93.45 31.2398 93.9904 31.2381 94.6834Z" fill="white"/>
<path d="M75.3527 1.76823C75.339 2.37498 74.8465 2.84579 74.2256 2.84414C73.6014 2.84248 73.0609 2.31033 73.0763 1.71684C73.0934 1.11672 73.6492 0.619381 74.2769 0.644248C74.8961 0.669115 75.3664 1.16148 75.3527 1.76823Z" fill="white"/>
<path d="M8.97833 94.7006C8.97491 95.246 8.44471 95.7351 7.85979 95.7334C6.42826 95.6655 6.39747 93.6844 7.85123 93.6396C8.4926 93.6347 8.98175 94.0955 8.97833 94.7006Z" fill="white"/>
<path d="M23.5786 73.2037C23.5786 73.7458 23.122 74.1984 22.5747 74.1984C22.0411 74.1984 21.5605 73.7259 21.5605 73.2037C21.5605 72.6766 22.0342 72.2157 22.5747 72.2157C23.1357 72.2157 23.5786 72.6517 23.5786 73.2037Z" fill="white"/>
<path d="M125.854 22.2326C126.408 22.2326 126.868 22.6603 126.882 23.1908C126.896 23.7296 126.4 24.2087 125.839 24.1987C125.293 24.1888 124.84 23.7346 124.847 23.2024C124.854 22.662 125.298 22.2326 125.854 22.2326Z" fill="white"/>
<path d="M96.3243 0.780045C96.899 0.775071 97.3488 1.18952 97.3573 1.73162C97.3659 2.24885 96.8904 2.718 96.35 2.72629C95.8232 2.73458 95.3204 2.26211 95.3135 1.75482C95.3067 1.23262 95.7685 0.78336 96.3243 0.780045Z" fill="white"/>
<path d="M23.5104 44.6507C23.5087 45.1563 23.1017 45.5542 22.5835 45.5575C22.055 45.5608 21.6069 45.1199 21.6257 44.6142C21.6445 44.1501 22.1268 43.6975 22.592 43.7108C23.0794 43.724 23.5122 44.1683 23.5104 44.6507Z" fill="white"/>
<path d="M16.0351 58.9466C16.0232 59.3826 15.6383 59.7622 15.2073 59.7656C14.7644 59.7689 14.3453 59.3395 14.3659 58.9002C14.3847 58.4758 14.7866 58.0763 15.2005 58.0746C15.6418 58.0713 16.0488 58.494 16.0351 58.9466Z" fill="white"/>
<path d="M8.65426 101.81C8.65084 102.213 8.25404 102.586 7.84357 102.574C7.44336 102.563 7.03802 102.146 7.06196 101.772C7.17142 100.799 8.6115 100.822 8.65426 101.81Z" fill="white"/>
<path d="M45.5265 101.804C45.5265 102.217 45.1485 102.586 44.7363 102.576C44.3156 102.566 43.9599 102.193 43.9735 101.779C44.0317 100.796 45.4974 100.824 45.5265 101.804Z" fill="white"/>
<path d="M15.1814 79.6352C15.5799 79.6253 15.939 79.9585 15.9544 80.3531C15.9715 80.7642 15.6004 81.1488 15.1899 81.1422C14.2373 81.0924 14.2048 79.6883 15.1814 79.6352Z" fill="white"/>
<path d="M38.0756 94.6834C38.0808 95.0465 37.7285 95.3648 37.3334 95.3598C36.9657 95.3548 36.6185 95.0465 36.6065 94.7149C36.5911 94.327 36.9571 93.9623 37.3573 93.9706C37.7438 93.9788 38.0705 94.3021 38.0756 94.6834Z" fill="white"/>
<path d="M15.1832 101.174C15.4705 101.161 15.7955 101.469 15.8143 101.774C15.8348 102.088 15.5646 102.394 15.2448 102.423C14.9164 102.452 14.5795 102.139 14.5795 101.808C14.5795 101.514 14.8925 101.188 15.1832 101.174Z" fill="white"/>
<path d="M119.07 80.3798C119.07 81.1921 117.82 81.1772 117.833 80.3715C117.864 79.5526 119.051 79.5592 119.07 80.3798Z" fill="white"/>
<path d="M74.8004 101.797C74.8158 102.537 73.6733 102.562 73.6528 101.825C73.6374 101.083 74.7764 101.061 74.8004 101.797Z" fill="white"/>
<path d="M7.88754 87.0041C8.58706 87.0389 8.50838 88.0137 7.84307 88.0153C7.17605 87.9391 7.18118 87.009 7.88754 87.0041Z" fill="white"/>
<path d="M22.5994 65.593C23.145 65.6626 23.1792 66.5048 22.5515 66.4733C22.2898 66.4633 22.0897 66.2412 22.1239 65.9975C22.1513 65.8002 22.4113 65.5797 22.5994 65.593Z" fill="white"/>
<path d="M96.3339 95.0942C95.7028 95.119 95.7797 94.2537 96.3441 94.2653C96.9034 94.2653 96.9701 95.1373 96.3339 95.0942Z" fill="white"/>
<path d="M0.899622 101.777C0.918436 102.369 0.0684123 102.402 0 101.835C0.00513093 101.278 0.824369 101.172 0.899622 101.777Z" fill="white"/>
<path d="M37.3322 22.7662C37.5888 22.7596 37.8145 22.9718 37.8077 23.2105C37.8026 23.4078 37.5734 23.6316 37.3664 23.6415C36.7866 23.6498 36.7387 22.7927 37.3322 22.7662Z" fill="white"/>
<path d="M15.6099 66.0265C15.639 66.5934 14.8078 66.62 14.7821 66.0646C14.7736 65.8574 14.9805 65.612 15.1789 65.5988C15.379 65.5838 15.5997 65.8043 15.6099 66.0265Z" fill="white"/>
<path d="M44.7714 95.0655C44.5884 95.0738 44.3369 94.8632 44.3609 94.6958C44.3882 94.5035 44.5063 94.3626 44.72 94.3377C45.2126 94.3095 45.2502 95.0124 44.7714 95.0655Z" fill="white"/>
<path d="M0.463221 95.068C-0.013955 95.0348 -0.0498714 94.3684 0.451249 94.3369C0.936976 94.3336 0.950659 95.0183 0.463221 95.068Z" fill="white"/>
<path d="M67.1341 1.71724C67.1462 2.0606 66.6217 2.09894 66.5821 1.76724C66.5512 1.58389 66.7025 1.50056 66.859 1.48889C66.9983 1.47889 67.1014 1.57223 67.1341 1.71724Z" fill="white"/>
<path d="M126.119 73.2026C126.109 73.5226 125.578 73.5143 125.612 73.1909C125.617 72.8592 126.107 72.8842 126.119 73.2026Z" fill="white"/>
<path d="M30.0213 30.063C30.3411 30.103 30.2724 30.6214 29.9473 30.5481C29.6069 30.5097 29.6946 30.033 30.0213 30.063Z" fill="white"/>
<path d="M111.042 87.2521C111.355 87.2621 111.398 87.7321 111.077 87.7488C110.711 87.7821 110.685 87.3021 111.042 87.2521Z" fill="white"/>
<path d="M22.5892 101.569C22.9159 101.564 22.8712 102.104 22.5497 102.048C22.3914 102.029 22.3175 101.938 22.3209 101.786C22.3261 101.616 22.4482 101.579 22.5892 101.569Z" fill="white"/>
<path d="M15.1765 51.5116C15.4947 51.4883 15.5377 51.9783 15.2161 51.9916C14.9375 52.0266 14.91 51.5466 15.1765 51.5116Z" fill="white"/>
<path d="M122.677 44.0082C122.668 44.1076 122.66 44.2071 122.653 44.3082C122.641 44.3364 122.631 44.3629 122.619 44.3911C122.607 44.3629 122.596 44.3364 122.584 44.3082C122.579 44.2054 122.574 44.1043 122.567 44.0015C122.603 44.0131 122.639 44.0148 122.677 44.0082Z" fill="white"/>
<path d="M122.665 45.018C122.665 45.0918 122.665 45.1655 122.664 45.2376C122.633 45.2392 122.601 45.2408 122.571 45.2425C122.567 45.1671 122.566 45.0917 122.562 45.0164C122.596 44.9607 122.631 44.9656 122.665 45.018Z" fill="white"/>
<path d="M122.668 45.014L122.615 45.004L122.562 45.0164C122.569 44.7826 122.574 44.5481 122.581 44.3144C122.603 44.3177 122.627 44.3177 122.649 44.3144C122.656 44.5481 122.661 44.7802 122.668 45.014Z" fill="white"/>
<path d="M77.9582 17.1639C77.8906 17.2 77.8213 17.236 77.7537 17.2704C77.7216 17.1426 77.7385 17.0247 77.894 17.0099C77.965 17.0034 77.9853 17.0919 77.9582 17.1639Z" fill="white"/>
</svg>
