<svg width="166" height="170" viewBox="0 0 166 170" fill="none" xmlns="http://www.w3.org/2000/svg">
<path d="M0 37.6654C0 16.9022 16.5135 0.0703125 36.884 0.0703125H129.094C149.465 0.0703125 165.978 16.9022 165.978 37.6654V131.653C165.978 152.416 149.465 169.248 129.094 169.248H36.884C16.5135 169.248 0 152.416 0 131.653V37.6654Z" fill="#595DD2"/>
<path d="M86.9666 54.9732C86.9786 54.9864 86.9923 54.9981 87.0042 55.0113C86.9957 54.9947 86.9837 54.9798 86.9666 54.9732ZM86.9666 54.9732C86.9786 54.9864 86.9923 54.9981 87.0042 55.0113C86.9957 54.9947 86.9837 54.9798 86.9666 54.9732ZM86.9666 54.9732C86.9786 54.9864 86.9923 54.9981 87.0042 55.0113C86.9957 54.9947 86.9837 54.9798 86.9666 54.9732ZM84.644 59.6548C84.6611 59.6465 84.6748 59.6349 84.6833 59.6167C84.6697 59.6299 84.6577 59.6415 84.644 59.6548ZM86.9666 54.9732C86.9786 54.9864 86.9923 54.9981 87.0042 55.0113C86.9957 54.9947 86.9837 54.9798 86.9666 54.9732ZM84.644 59.6548C84.6611 59.6465 84.6748 59.6349 84.6833 59.6167C84.6697 59.6299 84.6577 59.6415 84.644 59.6548ZM86.9666 54.9732C86.9786 54.9864 86.9923 54.9981 87.0042 55.0113C86.9957 54.9947 86.9837 54.9798 86.9666 54.9732ZM84.644 59.6548C84.6611 59.6465 84.6748 59.6349 84.6833 59.6167C84.6697 59.6299 84.6577 59.6415 84.644 59.6548ZM86.9666 54.9732C86.9786 54.9864 86.9923 54.9981 87.0042 55.0113C86.9957 54.9947 86.9837 54.9798 86.9666 54.9732ZM84.644 59.6548C84.6611 59.6465 84.6748 59.6349 84.6833 59.6167C84.6697 59.6299 84.6577 59.6415 84.644 59.6548ZM86.9666 54.9732C86.9786 54.9864 86.9923 54.9981 87.0042 55.0113C86.9957 54.9947 86.9837 54.9798 86.9666 54.9732ZM84.644 59.6548C84.6611 59.6465 84.6748 59.6349 84.6833 59.6167C84.6697 59.6299 84.6577 59.6415 84.644 59.6548ZM86.9666 54.9732C86.9786 54.9864 86.9923 54.9981 87.0042 55.0113C86.9957 54.9947 86.9837 54.9798 86.9666 54.9732ZM84.644 59.6548C84.6611 59.6465 84.6748 59.6349 84.6833 59.6167C84.6697 59.6299 84.6577 59.6415 84.644 59.6548ZM86.9666 54.9732C86.9786 54.9864 86.9923 54.9981 87.0042 55.0113C86.9957 54.9947 86.9837 54.9798 86.9666 54.9732ZM84.644 59.6548C84.6611 59.6465 84.6748 59.6349 84.6833 59.6167C84.6697 59.6299 84.6577 59.6415 84.644 59.6548ZM86.9666 54.9732C86.9786 54.9864 86.9923 54.9981 87.0042 55.0113C86.9957 54.9947 86.9837 54.9798 86.9666 54.9732ZM84.644 59.6548C84.6611 59.6465 84.6748 59.6349 84.6833 59.6167C84.6697 59.6299 84.6577 59.6415 84.644 59.6548ZM86.9666 54.9732C86.9786 54.9864 86.9923 54.9981 87.0042 55.0113C86.9957 54.9947 86.9837 54.9798 86.9666 54.9732ZM84.644 59.6548C84.6611 59.6465 84.6748 59.6349 84.6833 59.6167C84.6697 59.6299 84.6577 59.6415 84.644 59.6548ZM86.9666 54.9732C86.9786 54.9864 86.9923 54.9981 87.0042 55.0113C86.9957 54.9947 86.9837 54.9798 86.9666 54.9732ZM84.644 59.6548C84.6611 59.6465 84.6748 59.6349 84.6833 59.6167C84.6697 59.6299 84.6577 59.6415 84.644 59.6548ZM86.9666 54.9732C86.9786 54.9864 86.9923 54.9981 87.0042 55.0113C86.9957 54.9947 86.9837 54.9798 86.9666 54.9732ZM84.644 59.6548C84.6611 59.6465 84.6748 59.6349 84.6833 59.6167C84.6697 59.6299 84.6577 59.6415 84.644 59.6548ZM132.014 70.3061C131.996 70.2414 131.96 70.1751 131.91 70.1105C131.742 68.6649 131.005 67.5674 129.685 66.7965C131.276 65.7803 132.05 64.3961 131.737 62.6056C131.426 60.8235 130.26 59.7493 128.325 59.3696C130.573 58.6452 131.091 57.0023 130.94 55.7706C130.422 52.2892 125.638 52.0604 124.588 55.0776C124.446 55.1688 124.429 55.0345 124.376 54.9666C123.914 53.5442 122.924 52.634 121.434 52.1516C123.14 51.2962 124.027 50.0147 123.559 48.1431C123.218 46.787 122.249 45.9333 120.826 45.736C118.982 45.479 117.757 46.3676 117.02 48.0055C116.495 46.3228 115.378 45.2983 113.658 45.0248C111.732 44.7198 110.275 45.5089 109.225 47.1285C108.578 46.0775 107.685 45.3862 106.471 45.1209C106.418 45.0812 106.358 45.0828 106.298 45.0878C106.356 45.0778 106.418 45.0762 106.456 45.0165C106.527 44.9618 106.625 44.9767 106.697 44.927C109.751 43.8279 109.703 39.6254 106.522 38.6821C105.233 38.3373 103.837 38.7003 102.968 39.6983C101.431 41.4721 102.217 44.1064 104.408 44.9319C104.509 44.9668 104.59 45.0414 104.697 45.0596C104.648 45.1027 104.564 45.0646 104.521 45.1259C103.336 45.489 102.406 46.1537 101.814 47.3357C101.261 46.2698 100.394 45.6315 99.3133 45.2652C99.3663 45.1325 99.4519 45.1508 99.5134 45.1243C102.951 43.8063 102.486 38.697 98.53 38.3141C96.4571 38.0737 94.923 39.5541 94.5963 41.4854C94.5672 41.5434 94.5535 41.6014 94.5484 41.6611C94.5416 41.6031 94.521 41.5451 94.4766 41.4904C94.1773 39.2358 91.9675 37.9991 90.1512 38.4052C86.7101 39.0916 86.3287 43.3769 89.0275 44.8292C89.3508 45.0065 89.7185 45.0928 90.0623 45.3166C88.576 45.6697 87.6114 46.5334 87.124 47.9077C86.9444 47.7585 86.9392 47.5811 86.8674 47.4352C85.2888 44.3484 80.6949 44.791 79.7628 48.1132C79.72 48.1696 79.7269 48.2359 79.7217 48.3006C79.72 48.2359 79.7252 48.1696 79.6824 48.1132C78.7862 45.0032 74.5258 44.4545 72.8839 47.223C71.5943 49.4063 73.0173 52.1185 75.5606 52.5395C75.5896 52.5644 75.617 52.586 75.6495 52.6059C75.67 52.6191 75.6854 52.6307 75.7059 52.6407H75.7162C75.7419 52.6506 75.7692 52.6606 75.7983 52.6655C76.0634 52.6954 76.3353 52.6937 76.6021 52.6705C76.6192 52.6672 76.6363 52.6639 76.6535 52.6589C78.2936 52.3124 79.4789 51.3028 79.7166 49.9252C79.7234 49.902 79.7252 49.8755 79.7217 49.8523C79.7183 49.7793 79.6961 49.7064 79.744 49.6683C79.7474 49.6633 79.7525 49.66 79.7525 49.66L79.744 49.6683C79.7115 49.713 79.7217 49.781 79.7252 49.8523C79.7252 49.8771 79.7252 49.9037 79.7217 49.9285C79.8757 51.1603 81.2166 52.4036 82.383 52.5992C81.066 52.8247 80.0125 54.0432 79.7012 55.2782V55.2815C79.6892 55.3213 79.6773 55.3594 79.667 55.4009V55.4042C79.6499 55.4871 79.6379 55.5667 79.6362 55.6512C79.6311 55.7358 79.6294 55.822 79.6311 55.9065C79.6311 56.1055 79.6311 56.3044 79.6294 56.5033C79.6311 56.6161 79.6328 56.7288 79.6465 56.8399C79.6516 56.8597 79.6567 56.878 79.6619 56.8962C79.6738 56.9443 79.6858 56.9874 79.7012 57.0322V57.0355C80.0638 58.2838 80.8232 59.2072 82.1299 59.6813C82.2119 59.7029 82.294 59.7161 82.3778 59.7277H82.3813C82.3949 59.7294 82.4086 59.731 82.4223 59.736L82.4257 59.7377C82.4548 59.7443 82.4839 59.7526 82.5113 59.7642L82.5198 59.7659L82.5113 59.7725C82.4514 59.8206 82.395 59.7178 82.3351 59.7609C80.7291 60.235 79.9065 61.4187 79.6328 62.9123C79.6362 63.1212 79.5986 63.2754 79.6721 63.4727V63.476V63.481V63.4859V63.4909V63.4959V63.5009V63.5058V63.5108V63.5158V63.5224V63.534C79.6807 63.5572 79.691 63.5804 79.7029 63.6036C79.7217 63.6385 79.7457 63.6733 79.7748 63.7081C80.1185 65.3675 81.2285 66.5164 82.9713 66.8065C83.0124 66.8413 83.0551 66.8695 83.0996 66.8894C83.3185 66.9905 83.5682 66.9341 83.8042 66.9424C83.8932 66.9292 83.9804 66.9126 84.0659 66.896C84.0762 66.8944 84.083 66.8927 84.0899 66.8894H84.1035C84.1583 66.8778 84.213 66.8662 84.266 66.8546C85.6497 66.528 86.6297 65.7256 87.0829 64.3099C87.0829 64.2551 87.0829 64.2021 87.0795 64.1507C87.0795 64.0479 87.0778 63.9352 87.1325 63.8523C87.112 63.8954 87.1068 63.965 87.0966 64.0347C87.0949 64.0496 87.0915 64.0628 87.0897 64.0761C87.3241 65.4554 88.6222 66.7518 90.0075 66.8562C90.0315 66.8662 90.0588 66.8629 90.0845 66.8595C90.1495 66.8496 90.2179 66.8297 90.2607 66.906C90.2128 66.8396 90.1461 66.8496 90.0845 66.8595C90.0708 66.8612 90.0588 66.8662 90.0452 66.8662C90.0281 66.8678 90.011 66.8678 89.9939 66.8645C88.5589 67.09 87.4369 68.2106 87.1068 69.7093C87.0983 69.7441 87.0915 69.7772 87.0863 69.8104C87.0829 69.8154 87.0846 69.827 87.0846 69.827C87.0658 69.9165 87.0521 70.0011 87.0401 70.0939C87.0555 70.316 86.9974 70.5481 87.0915 70.757C87.112 70.8051 87.1411 70.8515 87.1804 70.8963C87.425 72.5076 88.653 73.6648 90.2726 73.9797C90.3017 74.0063 90.3308 74.0295 90.3633 74.0494C90.3838 74.0643 90.406 74.0759 90.4283 74.0842H90.4368C90.4625 74.0975 90.4813 74.1057 90.5104 74.1124C90.7224 74.1406 90.9328 74.1289 91.1449 74.1289C91.2321 74.1256 91.3193 74.1173 91.4049 74.1008C91.4151 74.0991 91.4254 74.0975 91.4356 74.0941C92.9099 73.8256 93.9601 72.9668 94.5091 71.5726C94.9931 72.8044 95.7696 73.7128 97.0386 74.0311C95.6841 74.4754 94.8409 75.4403 94.4902 76.8378V76.8527C94.4868 76.8643 94.4851 76.8776 94.4851 76.8892C94.4612 77.0102 94.4595 77.1312 94.4577 77.2522C94.4577 77.5274 94.4441 78.0131 94.4697 78.2834V78.29V78.2983L94.4732 78.3099C94.4783 78.3265 94.4817 78.343 94.4868 78.3596L94.4885 78.3629C94.8853 79.777 95.6601 80.8447 97.2644 81.1646C97.2729 81.1646 97.3003 81.1696 97.3003 81.1696L97.2798 81.1746C97.0728 81.163 96.8813 81.2442 96.6914 81.3304C95.3984 81.9123 94.7314 82.9418 94.492 84.2199C94.4885 84.2282 94.4885 84.2315 94.4885 84.2382C94.4766 84.3045 94.4646 84.3724 94.4543 84.4404C94.4595 84.5797 94.4424 84.7222 94.4783 84.8549V84.8598C94.4971 84.9295 94.5313 84.9891 94.5877 85.0488C94.8888 86.8359 96.0158 88.0428 97.9074 88.2566C97.9382 88.2815 97.969 88.3014 98.0015 88.3163C98.1315 88.3859 98.2786 88.3942 98.4291 88.3893C98.5249 88.381 98.6206 88.3694 98.7147 88.3544H98.7198C100.186 88.1638 101.708 86.9835 101.867 85.4848C101.829 86.8923 103.555 88.2798 104.72 88.3031C104.831 88.2964 104.944 88.3097 105.053 88.2848C104.944 88.3163 104.831 88.2981 104.721 88.308C103.182 88.4871 102.007 89.9177 101.769 91.3335C101.745 91.5888 101.747 91.8507 101.773 92.106C101.79 92.1955 101.833 92.2701 101.887 92.3414C102.139 93.9511 103.281 95.0121 104.879 95.4133C104.904 95.4465 104.933 95.473 104.966 95.4945C104.986 95.5095 105.009 95.5211 105.033 95.531C105.084 95.5542 105.144 95.5658 105.205 95.5708C105.616 95.589 106.033 95.594 106.426 95.468C106.483 95.4548 106.541 95.4415 106.598 95.4299C107.87 95.0585 108.735 94.2612 109.226 93.051C109.714 94.2363 110.495 95.0967 111.771 95.4697C110.429 95.9239 109.606 96.8025 109.211 98.2084C109.204 98.2233 109.201 98.2382 109.197 98.2531C109.192 98.2664 109.189 98.2796 109.185 98.2946C109.18 98.331 109.177 98.3658 109.175 98.4023C109.173 98.4272 109.172 98.4504 109.172 98.4753C109.17 98.4951 109.17 98.5167 109.17 98.5366C109.165 98.7836 109.17 99.0339 109.168 99.2809C109.168 99.3638 109.168 99.4451 109.17 99.5279C109.17 99.5396 109.17 99.5578 109.172 99.5694C109.172 99.6175 109.173 99.6639 109.177 99.712C109.18 99.7269 109.18 99.7418 109.182 99.7567C109.184 99.7683 109.185 99.7783 109.187 99.7899V99.7949C109.189 99.8065 109.192 99.8164 109.195 99.828V99.8844C109.616 101.366 110.728 102.414 112.117 102.621C112.175 102.631 112.235 102.638 112.295 102.645C112.348 102.65 112.406 102.653 112.46 102.656C112.787 102.658 113.114 102.656 113.44 102.655C113.475 102.653 113.509 102.651 113.541 102.648C113.57 102.646 113.598 102.645 113.625 102.64C113.658 102.638 113.688 102.635 113.721 102.63H113.726C115.12 102.459 115.963 101.559 116.598 100.329C117.14 101.522 118 102.29 119.175 102.689C117.868 103.235 116.928 104.074 116.632 105.436C116.62 105.503 116.606 105.566 116.596 105.632C116.593 105.658 116.587 105.685 116.584 105.712C116.577 105.932 116.569 106.156 116.599 106.375C116.611 106.429 116.628 106.474 116.658 106.522C116.673 106.55 116.692 106.577 116.712 106.603C117.013 108.271 118.175 109.466 119.916 109.639C121.373 109.806 122.563 109.219 123.345 108.013C124.508 106.22 123.865 103.717 121.407 102.85C121.265 102.8 121.109 102.79 121 102.666C122.645 102.202 123.755 101.249 124.031 99.5379C124.092 99.4036 124.089 99.2677 124.082 99.1301C124.104 99.3821 124.183 99.6274 124.238 99.8761C124.903 102.986 129.808 103.561 131.067 100.12C131.729 98.278 130.646 96.3052 128.736 95.6653C132.459 94.3258 132.611 89.9293 129.389 88.313C132.382 86.8541 132.592 82.9716 129.623 81.2061C129.68 81.0469 129.841 81.0121 129.967 80.9392C130.995 80.3573 131.559 79.2996 131.79 78.2005C131.811 78.1723 131.83 78.1441 131.847 78.1143C131.862 78.0911 131.872 78.0811 131.886 78.0645V78.0413C131.898 78.0131 131.907 77.9817 131.912 77.9502C131.927 77.6799 131.965 77.3865 131.881 77.1246C131.872 77.0997 131.86 77.0798 131.845 77.0566C131.828 77.0234 131.807 76.9936 131.784 76.9654C131.529 75.7088 130.838 74.7357 129.668 74.0494C131.026 73.2967 131.719 72.2009 131.905 70.7885C131.956 70.7238 131.992 70.6575 132.013 70.5912C132.043 70.4951 132.045 70.4022 132.014 70.3061ZM94.6014 69.454C94.5347 69.449 94.468 69.444 94.4013 69.4391C93.9583 68.1062 93.0194 67.2839 91.6357 66.9176C91.6426 66.8827 91.646 66.8479 91.6443 66.8131C93.0758 66.4948 93.9737 65.5996 94.5022 64.2253C95.0187 65.5184 95.7576 66.4898 97.2473 66.8662C95.8226 67.2889 95.0341 68.209 94.6014 69.454ZM94.492 57.2825C94.9897 58.4396 95.6481 59.2851 96.8471 59.7609C95.6225 60.2549 94.9555 61.1385 94.5039 62.3338C94.0302 61.0639 93.2298 60.2101 91.9008 59.7741C93.1477 59.3232 94.0045 58.5673 94.492 57.2825ZM91.8974 52.6025C93.1733 52.203 93.9498 51.4437 94.492 50.3413C95.0222 51.3592 95.6533 52.1848 96.8197 52.6042C95.6362 53.0535 94.9897 53.9022 94.5108 55.0097C93.9994 53.8509 93.2298 53.012 91.8974 52.6025ZM94.5467 41.8319C94.5518 41.9115 94.557 41.991 94.5501 42.0689C94.5501 42.0971 94.5518 42.1237 94.5535 42.1502C94.5518 42.1634 94.5535 42.175 94.5535 42.1866C94.6168 43.614 95.4925 44.5357 96.7376 45.2618C95.6875 45.6448 95.0478 46.3809 94.5056 47.2744C94.1396 46.8384 93.9002 46.3709 93.488 46.0427C93.0639 45.7061 92.573 45.484 92.0685 45.2867C93.4589 44.6501 94.4064 43.7151 94.5347 42.19C94.5364 42.1767 94.5364 42.1634 94.5364 42.1502C94.5398 42.1203 94.5416 42.0905 94.5433 42.0607C94.5296 41.9861 94.5416 41.9081 94.5467 41.8319ZM87.1821 62.4863C87.1222 62.4216 87.0624 62.3586 87.0008 62.294C86.9923 62.2857 86.9837 62.2757 86.9752 62.2675C86.563 61.0424 85.6976 60.2549 84.4593 59.8305C84.5209 59.7725 84.5824 59.7128 84.644 59.6548C84.6611 59.6465 84.6748 59.6349 84.6833 59.6167C85.7916 59.1608 86.5835 58.4114 86.9871 57.2991C87.0504 57.2626 87.1154 57.2261 87.1787 57.1896C87.5977 58.4429 88.446 59.2967 89.8023 59.7642C88.3981 60.2615 87.5378 61.1534 87.1821 62.4863ZM86.9752 50.2302C87.0436 50.1954 87.1137 50.159 87.1821 50.1225C87.5601 51.3609 88.4494 52.1168 89.7373 52.5976C88.4238 53.0833 87.5532 53.9139 87.177 55.187C87.1188 55.129 87.0624 55.0693 87.0042 55.0113C86.9957 54.9947 86.9837 54.9798 86.9666 54.9732C86.4569 53.7199 85.5436 52.9142 84.0916 52.6042C85.5111 52.2494 86.4928 51.5167 86.9752 50.2302ZM101.805 50.643C102.284 51.5183 102.912 52.1748 103.868 52.6108C102.898 53.0883 102.258 53.7613 101.824 54.7013C101.347 53.7232 100.644 53.0319 99.5972 52.6075C100.598 52.2014 101.308 51.5714 101.805 50.643ZM101.819 57.6041C102.25 58.6104 102.948 59.2735 103.911 59.7708C102.937 60.2715 102.241 60.9578 101.831 62.0022C101.364 60.9363 100.658 60.23 99.5784 59.7808C100.584 59.3 101.366 58.6535 101.819 57.6041ZM101.824 64.5685C102.313 65.6692 103.059 66.4467 104.251 66.8745C103.069 67.3668 102.264 68.151 101.839 69.3628C101.359 68.1079 100.499 67.2889 99.1628 66.8695C100.473 66.5131 101.294 65.7322 101.824 64.5685ZM101.826 71.508C102.303 72.7712 103.138 73.5985 104.465 74.0378C103.117 74.5467 102.241 75.3905 101.836 76.7947C101.378 75.3308 100.44 74.4522 98.8943 74.0444C100.369 73.6714 101.314 72.8757 101.826 71.508ZM101.85 84.137C101.422 82.6202 100.552 81.5923 98.9576 81.2724C98.961 81.2077 98.9627 81.1447 98.9661 81.0801C100.492 80.8098 101.369 79.8583 101.841 78.4193C102.233 79.8516 103.143 80.7286 104.626 81.1795C103.083 81.7067 102.195 82.6467 101.85 84.137ZM116.965 50.1175C117.032 50.1556 117.099 50.1921 117.166 50.2286C117.538 51.1271 118.241 51.7123 119.208 52.14C118.022 52.5163 117.164 53.1397 116.577 54.136C116.131 53.4762 115.616 52.9507 114.884 52.5893C115.926 52.014 116.627 51.2067 116.965 50.1175ZM118.127 59.7725C117.451 60.2947 116.998 60.6428 116.593 61.4369C116.156 60.7207 115.618 60.182 114.894 59.7857C115.572 59.373 116.144 58.8988 116.557 58.2059C116.977 58.8425 117.479 59.373 118.127 59.7725ZM116.565 65.1205C117.034 65.8533 117.573 66.4832 118.44 66.8778C117.6 67.3486 117.005 67.952 116.575 68.7759C116.127 67.9371 115.496 67.3353 114.595 66.896C115.462 66.4849 116.109 65.9279 116.565 65.1205ZM115.669 73.2768C116.028 72.9436 116.319 72.564 116.574 72.0866C117.042 72.9851 117.691 73.6067 118.602 74.0461C117.679 74.5218 117.024 75.185 116.577 76.1133C116.124 75.1435 115.409 74.5019 114.432 74.0577C114.872 73.7841 115.318 73.6001 115.669 73.2768ZM116.546 79.1338C116.853 79.5599 117.08 79.9926 117.422 80.3457C117.776 80.7104 118.255 80.8994 118.701 81.1978C117.694 81.7365 117.029 82.3914 116.582 83.4408C116.132 82.3532 115.378 81.6553 114.226 81.1779C115.346 80.7684 116.109 80.1467 116.546 79.1338ZM116.581 86.0037C117.063 87.1128 117.829 87.8803 119.016 88.318C117.814 88.8054 117.025 89.6077 116.584 90.7914C116.114 89.5315 115.25 88.749 113.926 88.3246C115.217 87.9267 116.085 87.2073 116.581 86.0037ZM116.575 92.9697C117.041 94.1915 117.856 95.0105 119.156 95.4697C117.826 95.9604 117.017 96.834 116.589 98.1338C116.129 96.7213 115.224 95.8758 113.777 95.4763C115.125 95.0685 116.105 94.3358 116.575 92.9697ZM109.225 50.8055C109.688 51.5813 110.256 52.1715 111.068 52.5843C110.203 52.9988 109.661 53.6453 109.182 54.4278C108.722 53.6254 108.123 53.0385 107.263 52.6092C108.152 52.1864 108.749 51.6145 109.225 50.8055ZM109.178 57.8843C109.637 58.6982 110.222 59.3299 111.044 59.7775C110.232 60.235 109.647 60.8434 109.216 61.7071C108.718 60.8815 108.135 60.2068 107.191 59.7808C108.065 59.3265 108.72 58.7612 109.178 57.8843ZM109.19 64.8354C109.705 65.7389 110.324 66.4633 111.356 66.8761C110.386 67.3635 109.674 68.0415 109.214 69.1058C108.703 68.0382 107.976 67.3221 106.863 66.8811C107.95 66.4932 108.664 65.8068 109.19 64.8354ZM109.199 71.75C109.7 72.8558 110.427 73.5885 111.542 74.0361C110.422 74.5368 109.673 75.2944 109.213 76.4515C108.694 75.2745 107.918 74.4721 106.633 74.0527C107.843 73.6316 108.674 72.9403 109.199 71.75ZM109.24 78.8255C109.679 79.9511 110.442 80.7435 111.687 81.1795C110.432 81.7084 109.647 82.5207 109.223 83.8071C108.735 82.4908 107.901 81.6338 106.603 81.2193C108.694 80.1202 108.246 80.3108 109.24 78.8255ZM109.213 85.634C109.697 87.0332 110.572 87.8936 111.987 88.3163C110.552 88.8037 109.649 89.6973 109.26 91.1047C108.97 90.7151 108.912 90.251 108.633 89.8929C108.344 89.5232 108.024 89.1916 107.636 88.9214C107.246 88.6479 106.791 88.5202 106.346 88.3644C106.353 88.3296 106.356 88.2948 106.355 88.2583C107.764 87.9218 108.703 87.0746 109.213 85.634ZM123.901 72.3286C124.349 73.0746 124.906 73.6382 125.7 74.0593C124.912 74.4937 124.357 75.0822 123.901 75.8829C123.441 75.0308 122.818 74.4821 121.999 74.0444C122.818 73.6498 123.42 73.1111 123.901 72.3286ZM122.16 66.896C122.974 66.4816 123.547 65.9179 124.005 65.1371C124.445 65.8433 124.953 66.3755 125.688 66.78C124.939 67.2259 124.359 67.763 123.918 68.514C123.437 67.8476 122.926 67.2756 122.16 66.896ZM123.059 80.4567C123.403 80.1782 123.639 79.7953 123.911 79.3311C124.34 80.1683 124.946 80.7452 125.835 81.1795C124.951 81.6785 124.352 82.2952 123.914 83.1805C123.432 82.2919 122.804 81.6437 121.895 81.2243C122.319 80.9474 122.717 80.7336 123.059 80.4567ZM123.904 86.2557C124.393 87.2155 125.059 87.8853 126.045 88.3213C125.069 88.807 124.383 89.4884 123.938 90.4781C123.083 89.1518 123.01 89.0839 121.64 88.3047C122.647 87.9102 123.396 87.2686 123.904 86.2557ZM124.084 98.83C124.08 98.8566 124.079 98.8831 124.077 98.9079C124.077 98.8814 124.077 98.8549 124.08 98.8284C124.08 98.6808 124.084 98.457 124.079 98.3095C123.959 96.9319 123.049 96.1146 121.848 95.4697C122.786 95.0652 123.417 94.4269 123.935 93.5417C124.402 94.6242 125.254 95.1646 126.179 95.6421C124.628 96.7197 124.279 97.1656 124.087 98.3095C124.085 98.3161 124.085 98.3211 124.084 98.3277V98.83ZM124.022 61.427C123.607 60.7174 123.107 60.2068 122.459 59.7874C123.483 59.1376 124.162 58.254 124.486 56.9973C124.932 58.2672 125.746 58.9867 127.051 59.358C125.69 59.6498 124.648 60.2135 124.022 61.427ZM84.644 59.6548C84.6611 59.6465 84.6748 59.6349 84.6833 59.6167C84.6697 59.6299 84.6577 59.6415 84.644 59.6548ZM86.9666 54.9732C86.9786 54.9864 86.9923 54.9981 87.0042 55.0113C86.9957 54.9947 86.9837 54.9798 86.9666 54.9732ZM84.644 59.6548C84.6611 59.6465 84.6748 59.6349 84.6833 59.6167C84.6697 59.6299 84.6577 59.6415 84.644 59.6548ZM86.9666 54.9732C86.9786 54.9864 86.9923 54.9981 87.0042 55.0113C86.9957 54.9947 86.9837 54.9798 86.9666 54.9732ZM84.644 59.6548C84.6611 59.6465 84.6748 59.6349 84.6833 59.6167C84.6697 59.6299 84.6577 59.6415 84.644 59.6548ZM86.9666 54.9732C86.9786 54.9864 86.9923 54.9981 87.0042 55.0113C86.9957 54.9947 86.9837 54.9798 86.9666 54.9732ZM84.644 59.6548C84.6611 59.6465 84.6748 59.6349 84.6833 59.6167C84.6697 59.6299 84.6577 59.6415 84.644 59.6548ZM86.9666 54.9732C86.9786 54.9864 86.9923 54.9981 87.0042 55.0113C86.9957 54.9947 86.9837 54.9798 86.9666 54.9732ZM84.644 59.6548C84.6611 59.6465 84.6748 59.6349 84.6833 59.6167C84.6697 59.6299 84.6577 59.6415 84.644 59.6548ZM86.9666 54.9732C86.9786 54.9864 86.9923 54.9981 87.0042 55.0113C86.9957 54.9947 86.9837 54.9798 86.9666 54.9732ZM84.644 59.6548C84.6611 59.6465 84.6748 59.6349 84.6833 59.6167C84.6697 59.6299 84.6577 59.6415 84.644 59.6548ZM86.9666 54.9732C86.9786 54.9864 86.9923 54.9981 87.0042 55.0113C86.9957 54.9947 86.9837 54.9798 86.9666 54.9732ZM84.644 59.6548C84.6611 59.6465 84.6748 59.6349 84.6833 59.6167C84.6697 59.6299 84.6577 59.6415 84.644 59.6548ZM86.9666 54.9732C86.9786 54.9864 86.9923 54.9981 87.0042 55.0113C86.9957 54.9947 86.9837 54.9798 86.9666 54.9732ZM84.644 59.6548C84.6611 59.6465 84.6748 59.6349 84.6833 59.6167C84.6697 59.6299 84.6577 59.6415 84.644 59.6548ZM86.9666 54.9732C86.9786 54.9864 86.9923 54.9981 87.0042 55.0113C86.9957 54.9947 86.9837 54.9798 86.9666 54.9732ZM84.644 59.6548C84.6611 59.6465 84.6748 59.6349 84.6833 59.6167C84.6697 59.6299 84.6577 59.6415 84.644 59.6548ZM86.9666 54.9732C86.9786 54.9864 86.9923 54.9981 87.0042 55.0113C86.9957 54.9947 86.9837 54.9798 86.9666 54.9732ZM84.644 59.6548C84.6611 59.6465 84.6748 59.6349 84.6833 59.6167C84.6697 59.6299 84.6577 59.6415 84.644 59.6548ZM86.9666 54.9732C86.9786 54.9864 86.9923 54.9981 87.0042 55.0113C86.9957 54.9947 86.9837 54.9798 86.9666 54.9732ZM86.9666 54.9732C86.9786 54.9864 86.9923 54.9981 87.0042 55.0113C86.9957 54.9947 86.9837 54.9798 86.9666 54.9732ZM86.9666 54.9732C86.9786 54.9864 86.9923 54.9981 87.0042 55.0113C86.9957 54.9947 86.9837 54.9798 86.9666 54.9732Z" fill="white"/>
<path d="M116.67 105.687C116.665 105.792 116.68 106.44 116.661 106.528C116.656 106.556 116.644 106.584 116.626 106.609C115.854 110.78 110.044 110.699 109.307 106.607C109.098 106.375 109.177 106.072 109.169 105.79C109.177 105.724 109.187 105.659 109.199 105.596V105.583C109.203 105.56 109.208 105.536 109.213 105.513C109.464 104.248 110.231 103.358 111.467 102.809C111.736 102.687 112.018 102.612 112.312 102.622C112.348 102.629 113.612 102.619 113.617 102.627C113.653 102.629 113.687 102.632 113.723 102.635H113.728C115.168 102.781 116.378 103.955 116.634 105.442C116.649 105.523 116.661 105.604 116.67 105.687Z" fill="white"/>
<path d="M79.7203 55.6459V56.8478C79.7203 56.8478 79.7203 56.8594 79.7186 56.866C79.7152 56.9257 79.71 56.9854 79.6998 57.0434V57.0467C79.5202 58.2984 78.2494 59.5351 76.8555 59.7904C76.8059 59.8037 76.7529 59.8169 76.7016 59.8318L76.693 59.8335L76.6896 59.8351L76.6794 59.8385C76.3869 59.9031 76.079 59.8915 75.7832 59.87C75.749 59.86 75.7182 59.8484 75.6857 59.8335C75.6515 59.8219 75.6155 59.8086 75.5831 59.7937C75.4274 59.7274 75.2769 59.6528 75.1042 59.6312C73.2519 59.0228 72.0444 57.239 72.5524 55.3641C72.8996 53.8456 74.0044 52.9901 75.5608 52.6536C75.5882 52.6337 75.619 52.6238 75.6497 52.6171C75.7182 52.6022 76.5049 52.6138 76.5938 52.6105C78.0733 52.6635 79.433 53.8522 79.7015 55.2895V55.2928C79.7083 55.3293 79.7152 55.3674 79.7203 55.4039V55.4652C79.722 55.5249 79.7203 55.5862 79.7203 55.6459Z" fill="white"/>
<path d="M94.4895 78.1544V78.1611C94.4878 78.1992 94.4878 78.2357 94.4895 78.2738V78.3683C94.4895 78.423 94.4895 78.4794 94.4878 78.5357C94.0449 80.046 93.0306 80.9196 91.4725 81.1898H91.4623C91.4469 81.1915 91.4315 81.1932 91.4161 81.1965C91.3836 81.2014 91.3511 81.2064 91.3169 81.2114C91.0535 81.1965 90.7765 81.2578 90.5199 81.1898C90.4344 81.1666 90.3506 81.1302 90.2702 81.0705C86.1792 80.3609 86.2441 74.8919 90.2702 74.0961C90.3369 74.0464 90.4139 74.0464 90.4943 74.0481H91.4127C92.8408 74.0995 94.1817 75.2898 94.4964 76.7453C94.493 76.7785 94.4912 76.8116 94.4912 76.8431C94.4878 76.863 94.4912 76.8812 94.4912 76.9011C94.4912 77.0238 94.5118 77.1465 94.534 77.2692C94.5357 77.2808 94.5374 77.294 94.5408 77.3056C94.5426 77.3156 94.5443 77.3255 94.546 77.3355C94.5768 77.6107 94.5015 77.8809 94.4895 78.1544Z" fill="white"/>
<path d="M109.199 99.4942C109.199 99.582 109.201 99.7478 109.199 99.8357V99.9169C108.877 101.329 107.701 102.364 106.134 102.631C106.122 102.634 106.108 102.636 106.095 102.637L106.076 102.642C106.026 102.649 105.975 102.656 105.925 102.662C105.727 102.654 105.523 102.685 105.332 102.637C105.25 102.617 105.171 102.583 105.096 102.525C101.034 101.857 100.829 96.4704 104.868 95.5403C104.901 95.5188 104.935 95.5072 104.969 95.5022C105.048 95.489 105.128 95.5022 105.207 95.4972C105.32 95.4972 105.987 95.4989 106.086 95.4956C106.098 95.4956 106.113 95.4956 106.125 95.4939C106.199 95.4923 106.271 95.4707 106.344 95.4624C106.351 95.4624 106.356 95.4608 106.363 95.4608L106.43 95.4757C107.896 95.7973 108.758 96.7306 109.199 98.0884C109.201 98.1265 109.201 98.1646 109.201 98.2028C109.201 98.2226 109.201 98.2425 109.201 98.2608C109.201 98.2774 109.201 98.2939 109.201 98.3088C109.204 98.3785 109.201 98.4481 109.204 98.5177C109.207 98.8443 109.223 99.1692 109.202 99.4942H109.199Z" fill="white"/>
<path d="M87.0914 70.7631C87.0726 70.9206 87.0367 71.0764 86.9734 71.2306C86.1097 74.7003 80.8625 74.9125 79.9235 71.1891C79.4686 69.3092 80.7958 67.4492 82.631 67.0132C82.7849 66.9502 82.9422 66.9154 83.0996 66.8955C83.4023 66.8557 83.7102 66.8772 84.018 66.8921C84.0471 66.8938 84.0745 66.8955 84.1035 66.8955C84.1617 66.8988 84.2215 66.9004 84.2797 66.9021C85.8344 67.3033 86.8896 68.3576 87.0795 69.7303C87.0812 69.7568 87.0812 69.7817 87.0829 69.8082C87.0829 69.8148 87.0829 69.8204 87.0846 69.827L87.0846 69.8331C87.1 70.1447 87.1291 70.4564 87.0914 70.7631Z" fill="white"/>
<path d="M101.795 92.3507C101.403 95.0645 97.9261 96.3874 95.8241 94.5008C93.717 92.6955 94.591 89.1627 97.3429 88.4797C97.5208 88.3571 97.7448 88.493 97.9244 88.3819C98.0595 88.2543 98.2271 88.3438 98.3793 88.3173C98.4324 88.3206 98.4854 88.3305 98.5367 88.3471C98.7231 88.3968 98.9181 88.3322 99.1062 88.3819C100.541 88.7267 101.745 89.8822 101.846 91.3477C101.851 91.6014 101.846 91.855 101.848 92.1086C101.846 92.1932 101.86 92.2794 101.798 92.3523L101.795 92.3507Z" fill="white"/>
<path d="M79.7004 63.6135C79.6936 63.6483 79.6833 63.6814 79.6696 63.7163C79.2591 65.7603 77.3761 67.2092 75.0826 66.5992C71.4345 65.51 71.7594 60.6311 75.4417 59.837C75.4862 59.8039 75.5324 59.7923 75.5803 59.7906C75.6453 59.7856 75.7137 59.7972 75.7787 59.7923C75.9668 59.7906 76.4713 59.7972 76.6526 59.7889C76.6646 59.7889 76.6749 59.7889 76.6868 59.7873H76.6937C76.745 59.784 76.798 59.7823 76.851 59.7873C78.0585 59.8437 79.697 61.3605 79.7175 62.7929C79.7209 62.831 79.7192 62.8691 79.7175 62.9073C79.6953 63.1427 79.7568 63.3814 79.7004 63.6135Z" fill="white"/>
<path d="M109.194 106.411C109.182 106.552 109.156 106.691 109.107 106.83C108.337 110.305 103.093 110.783 102.07 106.95C101.532 104.773 103.044 103.119 105.094 102.721C105.171 102.678 105.251 102.651 105.332 102.637C105.563 102.596 105.802 102.648 106.037 102.63C106.047 102.631 106.059 102.633 106.069 102.635C106.078 102.636 106.084 102.636 106.091 102.638L106.095 102.637C106.11 102.641 106.124 102.643 106.137 102.646C107.849 102.935 109.063 104.091 109.199 105.583L109.201 105.604C109.19 105.872 109.216 106.144 109.194 106.411Z" fill="white"/>
<path d="M94.4783 84.8598L94.477 84.8662C94.465 85.0403 94.4377 85.2127 94.3829 85.3818C93.6389 88.9212 88.219 89.2593 87.3416 85.4066C86.8884 83.3211 88.3507 81.6799 90.2662 81.2787C90.3483 81.2323 90.4321 81.2058 90.5159 81.1909L90.5199 81.1898C90.7816 81.1418 91.0512 81.2058 91.3129 81.1793C91.3471 81.1793 91.3796 81.1826 91.4138 81.1842C91.4292 81.1859 91.4446 81.1859 91.46 81.1876L91.4725 81.1898C92.928 81.3191 94.2119 82.542 94.4719 84.0572C94.4787 84.0887 94.4821 84.1185 94.4873 84.15C94.4873 84.3871 94.4988 84.6244 94.4783 84.8598Z" fill="white"/>
<path d="M83.4693 74.1778C85.4652 74.153 87.0148 75.7992 86.9943 77.6178C86.8899 82.1568 79.9409 82.1468 79.905 77.573C79.9102 75.703 81.4837 74.1381 83.4693 74.1778Z" fill="white"/>
<path d="M68.8068 52.7487C70.7822 52.7619 72.2446 54.1893 72.2172 56.1985C72.0855 60.9912 65.169 60.5635 65.2015 56.1007C65.2289 54.3368 66.7083 52.6691 68.8068 52.7487Z" fill="white"/>
<path d="M98.1749 102.439C96.0918 102.457 94.6722 100.76 94.7115 98.9575C94.8757 94.4417 101.58 94.45 101.743 99.0321C101.736 101.051 99.9793 102.489 98.1749 102.439Z" fill="white"/>
<path d="M102.017 113.308C102.049 111.556 103.467 109.923 105.559 109.918C110.231 110.076 110.26 116.567 105.559 116.751C103.609 116.751 102.006 115.195 102.017 113.308Z" fill="white"/>
<path d="M72.5566 70.4239C72.5652 68.5506 74.1438 67.0271 76.0799 67.0271C80.7182 67.1663 80.8157 73.7146 76.0525 73.8339C74.0856 73.8223 72.5498 72.3088 72.5566 70.4239Z" fill="white"/>
<path d="M87.313 91.9014C87.3387 90.1607 88.6847 88.5029 90.8106 88.4764C95.478 88.5361 95.5704 95.1424 90.8568 95.2734C88.9173 95.2949 87.3198 93.7648 87.313 91.9014Z" fill="white"/>
<path d="M86.94 84.7128C86.9314 86.4369 85.6487 88.1063 83.4253 88.093C78.7698 88.0383 78.8759 81.3475 83.4646 81.3375C85.647 81.3541 86.9246 83.0252 86.94 84.7128Z" fill="white"/>
<path d="M72.1523 63.2996C72.1318 65.3155 70.6404 66.6318 68.7574 66.645C64.1635 66.597 64.0882 59.9791 68.7522 59.9028C70.6866 59.9128 72.1472 61.2539 72.1523 63.2996Z" fill="white"/>
<path d="M98.2804 102.827C99.806 102.774 101.722 104.102 101.691 106.184C101.506 110.723 94.6939 110.604 94.7692 106.115C94.8034 103.865 96.6437 102.739 98.2804 102.827Z" fill="white"/>
<path d="M79.5376 77.6045C79.5478 79.2739 78.2771 80.9549 76.0742 80.9433C71.3708 80.8521 71.612 74.2823 76.0605 74.2491C78.1984 74.2359 79.5512 75.9053 79.5376 77.6045Z" fill="white"/>
<path d="M94.2881 99.0631C94.3274 100.834 92.819 102.379 90.8436 102.374C86.1402 102.186 86.3557 95.7094 90.9427 95.6547C92.6975 95.6962 94.3839 97.1749 94.2881 99.0631Z" fill="white"/>
<path d="M83.4415 88.5797C85.1945 88.515 86.8809 89.9589 86.8809 91.8969C86.7868 96.174 80.1884 96.3978 80.0225 91.9068C80.0037 89.7948 81.8252 88.5117 83.4415 88.5797Z" fill="white"/>
<path d="M68.7462 67.11C70.5814 67.173 72.1001 68.3467 72.1035 70.4239C72.1206 74.9016 65.3427 74.7557 65.3239 70.4405C65.3187 68.418 66.9692 67.1199 68.7462 67.11Z" fill="white"/>
<path d="M98.2213 110.03C99.9676 110 101.649 111.419 101.632 113.379C101.444 117.79 94.8281 117.701 94.8349 113.311C94.8503 111.542 96.2203 110.002 98.2213 110.03Z" fill="white"/>
<path d="M72.6987 84.7016C72.6542 83.0157 74.1233 81.4192 76.1056 81.4275C80.59 81.5966 80.5883 87.9028 76.0628 88.0073C74.0088 87.994 72.6285 86.3462 72.6987 84.7016Z" fill="white"/>
<path d="M94.2579 106.141C94.2648 108.069 92.6793 109.438 90.8937 109.47C86.3135 109.339 86.3409 102.988 90.8715 102.898C92.7375 102.91 94.2528 104.312 94.2579 106.141Z" fill="white"/>
<path d="M57.9888 63.283C57.9357 61.6136 59.3741 59.9806 61.3752 59.9856C63.2616 59.9906 64.7513 61.4594 64.7616 63.2912C64.7701 64.8429 63.5131 66.5438 61.3957 66.5654C59.3827 66.5853 57.9563 64.9756 57.9888 63.283Z" fill="white"/>
<path d="M80.1043 98.9926C80.0171 97.363 81.4931 95.7433 83.4565 95.7483C87.9461 95.9074 87.9102 102.18 83.4155 102.275C81.6658 102.265 80.0188 100.858 80.1043 98.9926Z" fill="white"/>
<path d="M68.7221 74.3423C70.3503 74.3356 72.052 75.4613 72.0332 77.6147C71.905 82.119 65.4605 81.7344 65.3818 77.6264C65.3647 75.9205 66.8065 74.3373 68.7221 74.3423Z" fill="white"/>
<path d="M94.1825 113.358C94.2184 115.261 92.4397 116.613 90.7824 116.56C86.3903 116.289 86.4638 110.223 90.8901 110.102C92.8382 110.117 94.2475 111.721 94.1825 113.358Z" fill="white"/>
<path d="M61.4028 67.2268C63.0943 67.1423 64.7225 68.6127 64.7122 70.4462C64.702 72.2134 63.1969 73.6872 61.3788 73.6706C59.701 73.6541 58.0677 72.4853 58.0437 70.4512C58.0198 68.4254 59.7746 67.1273 61.4028 67.2268Z" fill="white"/>
<path d="M76.1147 88.6779C77.8592 88.6132 79.4395 90.1251 79.4207 91.9139C79.3095 96.0484 72.8583 96.2656 72.7522 91.8592C72.7693 89.7405 74.6182 88.5801 76.1147 88.6779Z" fill="white"/>
<path d="M112.962 116.551C111.117 116.551 109.637 115.117 109.641 113.332C109.788 109.075 116.165 109.068 116.292 113.34C116.292 115.134 114.818 116.551 112.962 116.551Z" fill="white"/>
<path d="M86.7463 41.845C86.8147 43.3784 85.4498 45.0279 83.4608 45.0346C79.185 44.96 78.9182 38.7963 83.4368 38.6372C85.667 38.6289 86.8266 40.4193 86.7463 41.845Z" fill="white"/>
<path d="M64.6703 56.1556C64.6822 57.9245 63.2285 59.3684 61.4155 59.3867C57.0457 59.3137 56.9876 53.1086 61.3642 52.976C63.1857 52.9727 64.66 54.3901 64.6703 56.1556Z" fill="white"/>
<path d="M86.7394 106.203C86.7291 107.974 85.2617 109.368 83.4214 109.358C79.1182 109.229 79.0019 103.136 83.4727 102.999C85.1385 103.004 86.8146 104.338 86.7394 106.203Z" fill="white"/>
<path d="M68.7474 87.9116C66.9533 87.905 65.4551 86.6036 65.4397 84.7386C65.4055 80.7168 71.8379 80.246 71.9833 84.7055C71.9953 86.8424 70.3157 87.9033 68.7474 87.9116Z" fill="white"/>
<path d="M76.0562 95.8491C77.8588 95.8375 79.34 97.235 79.3571 98.9691C79.304 103.133 72.9879 103.288 72.8237 99.0287C72.8237 97.2665 74.2467 95.8607 76.0562 95.8491Z" fill="white"/>
<path d="M90.8398 123.622C89.0406 123.617 87.5885 122.201 87.592 120.457C87.775 116.207 93.9663 116.295 94.1373 120.482C94.1271 122.195 92.6237 123.625 90.8398 123.622Z" fill="white"/>
<path d="M68.6757 52.1362C67.0269 52.1644 65.4535 50.7503 65.486 48.9317C65.515 47.2922 66.8884 45.8018 68.7886 45.8267C70.362 45.8466 71.9663 46.9921 71.9475 49.0395C71.9287 51.0902 70.1465 52.2208 68.6757 52.1362Z" fill="white"/>
<path d="M131.897 76.9828C132.498 74.2723 136.219 73.5395 137.796 75.8969C138.602 77.1021 138.462 78.6721 137.488 79.7264C136.693 80.5885 135.699 80.8454 134.566 80.6962C133.057 80.4973 132.272 79.549 131.887 78.2046C131.827 78.1266 131.841 78.0371 131.839 77.9493C131.839 77.742 131.839 77.5348 131.839 77.3259C131.851 77.2115 131.805 77.0856 131.897 76.9828Z" fill="white"/>
<path d="M53.9069 73.562C52.3163 73.5736 50.724 72.2904 50.7394 70.3972C50.9104 66.3356 57.0658 66.2577 57.1873 70.4569C57.1719 72.4612 55.4581 73.6332 53.9069 73.562Z" fill="white"/>
<path d="M65.5168 91.8854C65.4638 90.4149 66.7038 88.7737 68.7288 88.7604C73.0063 88.8649 72.9327 94.9407 68.7288 94.997C66.8321 94.9888 65.4792 93.5001 65.5168 91.8854Z" fill="white"/>
<path d="M86.6384 113.36C86.6709 115.089 85.1213 116.427 83.435 116.428C81.6939 116.428 80.2452 115.016 80.2452 113.33C80.2452 111.634 81.6819 110.248 83.4367 110.238C85.3745 110.227 86.7256 111.863 86.6384 113.36Z" fill="white"/>
<path d="M72.8975 106.194C72.8565 104.22 74.5959 103.103 76.0548 103.099C80.2108 103.137 80.4639 109.099 76.0872 109.256C74.235 109.261 72.8975 107.865 72.8975 106.194Z" fill="white"/>
<path d="M98.1794 123.558C96.4092 123.505 95.0427 122.301 95.0701 120.431C95.1419 116.229 101.364 116.481 101.4 120.493C101.396 122.19 99.9273 123.566 98.1794 123.558Z" fill="white"/>
<path d="M83.4504 117.416C85.1316 117.329 86.6384 118.798 86.623 120.486C86.6076 122.137 85.1624 123.538 83.447 123.523C81.9265 123.51 80.3034 122.454 80.2812 120.483C80.2589 118.497 81.9812 117.329 83.4504 117.416Z" fill="white"/>
<path d="M57.1017 63.3596C57.1376 64.8533 55.7967 66.3469 53.9581 66.3387C49.8705 66.2525 49.6995 60.3275 54.0095 60.2264C56.0003 60.2479 57.2197 61.8974 57.1017 63.3596Z" fill="white"/>
<path d="M71.838 99.0547C71.9201 100.923 70.1842 102.107 68.6894 102.065C64.4512 101.86 64.6428 96.0094 68.7766 95.9497C70.2218 95.958 71.9526 97.1301 71.838 99.0547Z" fill="white"/>
<path d="M135.009 87.7448C133.153 87.7448 131.886 86.223 131.932 84.6481C131.982 82.9903 133.406 81.6442 135.171 81.6873C136.813 81.727 138.25 83.0732 138.207 84.779C138.164 86.4998 136.782 87.7879 135.009 87.7448Z" fill="white"/>
<path d="M64.4986 91.9156C64.4901 93.5784 63.0962 94.9063 61.3619 94.9013C57.1922 94.7455 57.264 88.9698 61.4149 88.8719C63.1338 88.8935 64.5055 90.2479 64.4986 91.9156Z" fill="white"/>
<path d="M61.3671 74.6199C63.1031 74.5851 64.4781 75.9461 64.4764 77.6155C64.4747 79.4291 62.8944 80.6692 61.3825 80.6526C59.691 80.6327 58.2766 79.2849 58.2714 77.6304C58.2663 76.0124 59.614 74.5867 61.3671 74.6199Z" fill="white"/>
<path d="M71.8099 106.177C71.7996 107.837 70.4468 109.14 68.733 109.138C64.6163 108.999 64.6984 103.258 68.745 103.218C70.4057 103.223 71.8167 104.4 71.8099 106.177Z" fill="white"/>
<path d="M61.3601 81.7401C63.0414 81.7352 64.4489 83.1012 64.4438 84.7308C64.283 88.6415 58.4851 88.6697 58.3072 84.749C58.2952 83.1161 59.6857 81.7451 61.3601 81.7401Z" fill="white"/>
<path d="M49.5729 77.6341C49.6653 78.9537 48.4356 80.5883 46.5371 80.58C44.8884 80.5734 43.515 79.1925 43.5219 77.5861C43.5287 75.9747 44.9175 74.6518 46.5867 74.6551C48.2543 74.6584 49.6619 76.0592 49.5729 77.6341Z" fill="white"/>
<path d="M61.4163 96.0903C62.9094 96.0438 64.4059 97.3137 64.3956 99.0163C64.2964 102.895 58.4096 102.919 58.3429 98.9848C58.3531 97.1827 59.9437 96.0074 61.4163 96.0903Z" fill="white"/>
<path d="M132.111 69.7874C132.544 68.1296 134.087 67.3637 135.417 67.5129C138.93 67.9804 138.977 72.6769 135.681 73.3152C134 73.6434 132.459 72.6073 132.104 71.0108C131.956 70.603 131.997 70.1952 132.111 69.7874Z" fill="white"/>
<path d="M51.0298 77.6056C50.9631 76.039 52.4511 74.7028 53.9989 74.7459C55.6066 74.7907 56.9321 76.044 56.9406 77.604C56.9492 79.1573 55.5638 80.5068 53.9698 80.5134C52.4032 80.52 50.9511 79.1374 51.0298 77.6056Z" fill="white"/>
<path d="M58.4424 106.158C58.3996 104.514 59.7234 103.34 61.3584 103.337C65.2699 103.341 65.2956 108.907 61.3875 109.026C59.6892 109.023 58.374 107.678 58.4424 106.158Z" fill="white"/>
<path d="M56.861 99.055C56.8525 100.565 55.6176 101.822 53.9313 101.815C52.3082 101.809 51.0186 100.509 51.0494 98.9373C51.0785 97.4088 52.4211 96.1771 54.0253 96.2053C55.6467 96.2334 56.885 97.4784 56.861 99.055Z" fill="white"/>
<path d="M49.4613 70.4641C49.5212 71.7787 48.3359 73.2624 46.5606 73.2591C42.7347 73.1099 42.709 67.7951 46.5487 67.6243C48.1717 67.6077 49.4682 68.8726 49.4613 70.4641Z" fill="white"/>
<path d="M76.0814 123.219C74.4942 123.219 73.2183 121.984 73.2251 120.459C73.232 118.933 74.5181 117.69 76.0882 117.693C77.6565 117.697 78.9478 118.948 78.9478 120.465C78.9478 121.989 77.6668 123.219 76.0814 123.219Z" fill="white"/>
<path d="M56.781 106.175C56.7759 107.707 55.541 108.897 53.9624 108.894C50.2254 108.793 50.2271 103.515 53.9693 103.473C55.4914 103.473 56.7998 104.559 56.781 106.175Z" fill="white"/>
<path d="M53.9476 94.591C52.3638 94.6324 51.1358 93.2979 51.1598 91.8523C51.3205 88.2781 56.6482 88.2698 56.7799 91.8938C56.785 93.2996 55.5638 94.6523 53.9476 94.591Z" fill="white"/>
<path d="M76.0998 124.933C77.61 124.933 78.8876 126.11 78.874 127.64C78.7577 131.287 73.3377 131.168 73.2812 127.604C73.2812 126.133 74.5691 124.925 76.0998 124.933Z" fill="white"/>
<path d="M61.3602 116.013C60.0467 116.043 58.6049 115.037 58.5878 113.317C58.7417 109.801 64.03 109.765 64.1446 113.341C64.1446 115.11 62.6378 116.054 61.3602 116.013Z" fill="white"/>
<path d="M51.2482 113.333C51.2533 111.875 52.4608 110.714 53.9676 110.709C57.5575 110.797 57.6259 115.928 53.9454 115.973C52.1991 115.948 51.2277 114.626 51.2482 113.333Z" fill="white"/>
<path d="M112.971 44.4609C111.485 44.4626 110.231 43.2723 110.259 41.83C110.454 38.1978 115.6 38.4763 115.682 41.825C115.684 43.2723 114.464 44.4592 112.971 44.4609Z" fill="white"/>
<path d="M78.77 113.357C78.7649 114.804 77.5916 115.997 76.102 115.961C72.3803 115.83 72.6009 110.769 76.0934 110.709C77.6532 110.711 78.8675 112.019 78.77 113.357Z" fill="white"/>
<path d="M78.7571 41.8281C78.7553 43.2637 77.5615 44.4292 76.089 44.4341C74.6232 44.4391 73.4089 43.267 73.3987 41.8397C73.3901 40.3842 74.613 39.1939 76.1044 39.2088C77.5821 39.2237 78.7588 40.3858 78.7571 41.8281Z" fill="white"/>
<path d="M137.748 91.9394C137.775 93.317 136.528 94.5106 135.042 94.4857C131.483 94.2951 131.545 89.3565 135.148 89.2852C136.576 89.3167 137.815 90.4755 137.748 91.9394Z" fill="white"/>
<path d="M49.2408 106.156C49.2459 107.598 48.0744 108.76 46.5881 108.758C43.123 108.777 42.9041 103.646 46.5471 103.621C48.1565 103.599 49.2117 104.7 49.2408 106.156Z" fill="white"/>
<path d="M66.0772 127.593C66.0088 126.499 67.0282 125.047 68.7402 125.055C72.313 125.123 72.2857 130.228 68.7043 130.221C67.0932 130.209 66.0276 128.958 66.0772 127.593Z" fill="white"/>
<path d="M102.915 120.462C102.854 119.152 104.041 117.868 105.589 117.884C108.999 118 109.17 122.932 105.536 123.027C103.902 123.013 102.861 121.724 102.915 120.462Z" fill="white"/>
<path d="M36.5541 84.7237C36.5028 83.5069 37.6213 82.174 39.1897 82.1608C42.5778 82.247 42.8702 87.0993 39.1777 87.2916C37.5272 87.2916 36.4874 85.8626 36.5541 84.7237Z" fill="white"/>
<path d="M83.461 125.159C84.8429 125.089 86.0726 126.305 86.0384 127.69C85.8794 130.951 80.9297 130.945 80.8425 127.652C80.8237 126.207 82.0688 125.089 83.461 125.159Z" fill="white"/>
<path d="M49.1404 113.352C49.1353 114.733 47.9945 115.817 46.5527 115.81C43.1236 115.669 43.1646 110.973 46.5818 110.864C48.0151 110.875 49.1456 111.974 49.1404 113.352Z" fill="white"/>
<path d="M46.5429 96.5537C47.9403 96.5454 49.1084 97.6345 49.1152 98.9807C49.1358 102.149 44.1502 102.459 44.0254 99.0271C44.0202 97.3842 45.397 96.5404 46.5429 96.5537Z" fill="white"/>
<path d="M68.7243 110.91C70.1542 110.907 71.2624 111.97 71.2607 113.346C71.1769 116.565 66.3248 116.583 66.2102 113.369C66.1982 111.993 67.3014 110.914 68.7243 110.91Z" fill="white"/>
<path d="M39.2116 75.1883C40.6278 75.1369 41.7497 76.3802 41.7207 77.6418C41.5308 80.8728 36.8429 80.8496 36.6872 77.6252C36.6753 76.362 37.7647 75.1369 39.2116 75.1883Z" fill="white"/>
<path d="M39.1887 111.02C40.4133 110.964 41.619 112.009 41.6105 113.36C41.5883 116.299 36.8866 116.564 36.7994 113.328C36.8062 111.763 38.1899 110.966 39.1887 111.02Z" fill="white"/>
<path d="M130.076 106.169C130.148 107.256 129.111 108.538 127.663 108.513C126.334 108.49 125.299 107.493 125.278 106.194C125.261 105.139 126.014 103.861 127.695 103.88C129.07 103.896 130.076 104.859 130.076 106.169Z" fill="white"/>
<path d="M137.442 63.2638C137.444 64.527 136.349 65.5864 135.055 65.5731C133.793 65.5615 132.705 64.4989 132.701 63.2738C132.698 62.0171 133.799 60.9628 135.101 60.9777C136.396 60.991 137.441 62.0105 137.442 63.2638Z" fill="white"/>
<path d="M120.24 115.565C119.104 115.634 117.996 114.574 117.996 113.319C117.996 112.123 119.079 111.082 120.288 111.094C121.574 111.107 122.602 112.123 122.585 113.365C122.566 114.63 121.562 115.573 120.24 115.565Z" fill="white"/>
<path d="M53.9614 86.931C52.7043 86.9277 51.7089 85.943 51.6987 84.7179C51.7585 81.8482 56.142 81.7504 56.2447 84.7345C56.2498 85.9496 55.2133 86.9343 53.9614 86.931Z" fill="white"/>
<path d="M41.4638 120.497C41.4501 121.511 40.6788 122.644 39.1959 122.639C36.155 122.577 36.2371 118.35 39.2079 118.272C40.4564 118.274 41.4758 119.28 41.4638 120.497Z" fill="white"/>
<path d="M41.458 106.175C41.4495 107.355 40.4181 108.358 39.2072 108.362C37.9673 108.365 36.9291 107.331 36.9582 106.125C36.989 104.91 37.9895 103.964 39.2312 103.98C40.4677 103.995 41.4666 104.978 41.458 106.175Z" fill="white"/>
<path d="M88.6483 127.621C88.6039 126.435 89.6865 125.462 90.9008 125.487C92.1134 125.512 93.09 126.477 93.0729 127.659C93.0592 128.665 92.334 129.776 90.8598 129.792C89.483 129.807 88.6021 128.715 88.6483 127.621Z" fill="white"/>
<path d="M46.5668 82.5977C47.6836 82.5198 48.7833 83.5029 48.7782 84.7131C48.7799 87.46 44.4511 87.7236 44.3587 84.7114C44.357 83.3503 45.5611 82.5148 46.5668 82.5977Z" fill="white"/>
<path d="M44.3859 120.392C44.415 119.044 45.6122 118.288 46.6538 118.328C49.51 118.527 49.4399 122.573 46.5118 122.568C45.2548 122.535 44.3398 121.598 44.3859 120.392Z" fill="white"/>
<path d="M53.9796 58.2017C52.9517 58.2646 51.8485 57.4192 51.869 56.1443C51.8861 54.9706 52.7635 54.1169 53.9608 54.1119C55.3683 54.1069 56.0781 55.2442 56.0747 56.1791C56.0713 57.265 55.0844 58.2597 53.9796 58.2017Z" fill="white"/>
<path d="M29.7113 120.455C29.7164 119.338 30.669 118.428 31.8218 118.438C34.5497 118.564 34.601 122.375 31.8012 122.484C30.6468 122.506 29.7061 121.576 29.7113 120.455Z" fill="white"/>
<path d="M61.3885 50.9299C60.282 50.9382 59.355 50.043 59.3618 48.9754C59.4867 46.4224 63.3007 46.4008 63.3674 49.0003C63.3605 50.0762 62.4934 50.9233 61.3885 50.9299Z" fill="white"/>
<path d="M33.7159 113.327C33.7245 114.356 32.8813 115.189 31.8175 115.199C30.7588 115.21 29.8968 114.39 29.8849 113.358C29.8729 112.346 30.7417 111.485 31.785 111.479C32.83 111.472 33.7074 112.312 33.7159 113.327Z" fill="white"/>
<path d="M53.9605 122.314C52.8608 122.364 52.0142 121.327 52.0484 120.462C52.1835 117.985 55.8008 118.045 55.8983 120.472C55.8914 121.492 55.026 122.317 53.9605 122.314Z" fill="white"/>
<path d="M33.7159 84.7242C33.7159 85.7471 32.8608 86.5859 31.8089 86.5892C30.7588 86.5942 29.8951 85.7637 29.8848 84.7375C29.8746 83.7179 30.7383 82.8708 31.7935 82.8692C32.8454 82.8658 33.7159 83.708 33.7159 84.7242Z" fill="white"/>
<path d="M48.4466 63.2546C48.4962 64.2858 47.6342 65.0997 46.5584 65.1279C45.5425 65.1544 44.6822 64.2957 44.6685 63.2994C44.6548 62.2616 45.5014 61.4344 46.5686 61.4377C47.6923 61.4393 48.4962 62.3677 48.4466 63.2546Z" fill="white"/>
<path d="M90.8457 32.9648C91.8514 32.9632 92.6621 33.7357 92.6655 34.6989C92.6689 35.6554 91.8548 36.4495 90.8645 36.4578C89.8726 36.4661 89.0533 35.6836 89.0414 34.7188C89.0294 33.7589 89.8452 32.9665 90.8457 32.9648Z" fill="white"/>
<path d="M68.7223 122.204C67.7816 122.205 66.947 121.529 66.9265 120.445C66.9094 119.482 67.7628 118.703 68.7548 118.711C69.7519 118.721 70.5489 119.508 70.5438 120.476C70.5369 121.456 69.7399 122.212 68.7223 122.204Z" fill="white"/>
<path d="M31.7093 93.6139C30.7207 93.5658 29.9647 92.7734 30.0109 91.8351C30.0588 90.8653 30.914 90.0961 31.8871 90.1508C32.8346 90.2038 33.6316 91.046 33.5923 91.9528C33.5495 92.9226 32.7098 93.6636 31.7093 93.6139Z" fill="white"/>
<path d="M99.9652 34.7298C99.9567 35.6664 99.1477 36.439 98.1814 36.4274C95.8485 36.2997 95.8554 33.072 98.219 33.0007C99.1973 33.0107 99.9738 33.7782 99.9652 34.7298Z" fill="white"/>
<path d="M136.746 99.0091C136.746 99.8993 136.012 100.624 135.096 100.635C134.174 100.649 133.39 99.8844 133.404 98.9875C133.419 98.1073 134.181 97.3845 135.087 97.3911C135.997 97.3977 136.746 98.1272 136.746 99.0091Z" fill="white"/>
<path d="M61.3902 126.055C62.3343 126.061 63.0321 126.742 63.0287 127.659C63.0252 128.531 62.2556 129.272 61.3594 129.264C60.4735 129.256 59.6953 128.486 59.709 127.629C59.7226 126.726 60.4444 126.05 61.3902 126.055Z" fill="white"/>
<path d="M61.3866 136.356C60.4836 136.361 59.7567 135.675 59.743 134.805C59.7276 133.921 60.4939 133.168 61.3935 133.187C62.2811 133.203 63.0114 133.926 63.0097 134.785C63.0097 135.645 62.2794 136.351 61.3866 136.356Z" fill="white"/>
<path d="M68.7535 136.354C67.8334 136.359 67.1287 135.686 67.1202 134.795C67.1133 133.908 67.8197 133.198 68.7245 133.186C69.5865 133.175 70.3715 133.924 70.3817 134.766C70.392 135.62 69.6446 136.35 68.7535 136.354Z" fill="white"/>
<path d="M126.066 48.9573C126.074 48.077 126.81 47.3741 127.703 47.394C128.592 47.4155 129.32 48.1466 129.307 49.0053C129.293 49.8724 128.553 50.5653 127.651 50.5537C126.738 50.5421 126.059 49.8574 126.066 48.9573Z" fill="white"/>
<path d="M44.9897 91.862C44.9282 91.1873 45.6209 90.3236 46.5957 90.3501C47.4646 90.3733 48.1795 91.0845 48.1607 91.92C48.1418 92.7539 47.391 93.4634 46.5376 93.4385C45.5901 93.4104 44.9196 92.5964 44.9897 91.862Z" fill="white"/>
<path d="M114.501 120.456C114.508 121.283 113.806 121.972 112.958 121.969C110.947 121.883 110.906 119.071 112.939 118.977C113.812 118.969 114.494 119.613 114.501 120.456Z" fill="white"/>
<path d="M24.3941 126.144C25.2629 126.134 25.9505 126.789 25.9573 127.628C25.9624 128.416 25.2646 129.114 24.454 129.13C23.6381 129.148 22.9181 128.48 22.8959 127.685C22.8719 126.829 23.5287 126.153 24.3941 126.144Z" fill="white"/>
<path d="M22.9139 120.467C22.9139 119.645 23.581 118.982 24.4122 118.977C25.228 118.972 25.9343 119.643 25.9497 120.439C25.9651 121.245 25.228 122.001 24.4139 121.964C23.5262 121.924 22.9276 121.286 22.9139 120.467Z" fill="white"/>
<path d="M99.7148 127.626C99.7285 128.396 99.0563 129.073 98.2491 129.098C97.4213 129.124 96.6875 128.459 96.6773 127.672C96.6653 126.861 97.3426 126.183 98.1721 126.173C99.0067 126.162 99.6994 126.813 99.7148 127.626Z" fill="white"/>
<path d="M33.3084 127.667C33.2999 128.44 32.614 129.099 31.8051 129.098C30.8285 129.098 30.2675 128.284 30.2743 127.632C30.2829 126.825 30.9824 126.167 31.8136 126.173C32.6482 126.18 33.317 126.848 33.3084 127.667Z" fill="white"/>
<path d="M39.2026 68.99C40.044 68.9916 40.7111 69.6531 40.6957 70.4704C40.5896 72.3868 37.7266 72.337 37.7043 70.409C37.7197 69.6166 38.3833 68.9883 39.2026 68.99Z" fill="white"/>
<path d="M68.763 40.3824C69.5703 40.3957 70.239 41.0737 70.2151 41.8545C70.1911 42.6403 69.4916 43.2752 68.6809 43.2504C67.8976 43.2255 67.2528 42.569 67.2597 41.8031C67.2665 41.014 67.9489 40.3708 68.763 40.3824Z" fill="white"/>
<path d="M61.3689 121.882C60.6283 121.95 59.8895 121.257 59.9117 120.446C59.9305 119.783 60.4077 119.084 61.3603 119.026C62.1214 118.978 62.8979 119.722 62.8705 120.466C62.8449 121.196 62.2651 121.93 61.3689 121.882Z" fill="white"/>
<path d="M37.9179 91.878C37.87 91.1983 38.4806 90.6396 39.2229 90.6263C39.9258 90.6131 40.5261 91.2381 40.5124 91.9161C40.4971 92.6041 39.8933 93.1694 39.1852 93.1611C38.4618 93.1528 37.9128 92.5958 37.9179 91.878Z" fill="white"/>
<path d="M120.255 40.5655C120.986 40.5572 121.601 41.1043 121.584 41.8022C121.482 43.5628 118.988 43.4385 119.024 41.8072C119.055 41.0827 119.516 40.5622 120.255 40.5655Z" fill="white"/>
<path d="M76.0865 136.014C75.4041 136.03 74.7884 135.508 74.797 134.755C74.826 133.234 77.2393 133.074 77.3641 134.749C77.4137 135.438 76.8134 136.012 76.0865 136.014Z" fill="white"/>
<path d="M40.4624 99.0125C40.5206 99.6093 39.9682 100.246 39.2173 100.247C37.507 100.203 37.519 97.8105 39.2173 97.7757C39.9305 97.7824 40.4624 98.3112 40.4624 99.0125Z" fill="white"/>
<path d="M40.4588 127.648C40.4553 128.33 39.8909 128.852 39.1726 128.837C37.4657 128.741 37.5615 126.438 39.2222 126.403C39.9252 126.415 40.4605 126.955 40.4588 127.648Z" fill="white"/>
<path d="M84.5734 34.7331C84.5597 35.3398 84.0672 35.8106 83.4463 35.809C82.8221 35.8073 82.2816 35.2752 82.297 34.6817C82.3141 34.0816 82.8699 33.5842 83.4976 33.6091C84.1168 33.634 84.5871 34.1263 84.5734 34.7331Z" fill="white"/>
<path d="M18.199 127.665C18.1956 128.211 17.6654 128.7 17.0805 128.698C15.649 128.63 15.6182 126.649 17.0719 126.604C17.7133 126.6 18.2025 127.06 18.199 127.665Z" fill="white"/>
<path d="M32.7993 106.169C32.7993 106.711 32.3427 107.163 31.7954 107.163C31.2618 107.163 30.7812 106.691 30.7812 106.169C30.7812 105.641 31.2549 105.181 31.7954 105.181C32.3564 105.181 32.7993 105.617 32.7993 106.169Z" fill="white"/>
<path d="M135.075 55.1975C135.629 55.1975 136.089 55.6252 136.103 56.1557C136.116 56.6944 135.62 57.1735 135.059 57.1636C134.514 57.1536 134.061 56.6994 134.067 56.1673C134.074 55.6268 134.519 55.1975 135.075 55.1975Z" fill="white"/>
<path d="M105.545 33.7449C106.12 33.7399 106.569 34.1544 106.578 34.6965C106.587 35.2137 106.111 35.6828 105.571 35.6911C105.044 35.6994 104.541 35.227 104.534 34.7197C104.527 34.1975 104.989 33.7482 105.545 33.7449Z" fill="white"/>
<path d="M32.7311 77.6156C32.7294 78.1212 32.3224 78.5191 31.8042 78.5224C31.2757 78.5257 30.8276 78.0847 30.8464 77.5791C30.8652 77.1149 31.3475 76.6623 31.8127 76.6756C32.3001 76.6889 32.7329 77.1331 32.7311 77.6156Z" fill="white"/>
<path d="M25.2558 91.9114C25.2439 92.3474 24.859 92.7271 24.428 92.7304C23.9851 92.7337 23.566 92.3043 23.5866 91.865C23.6054 91.4406 24.0073 91.0411 24.4212 91.0395C24.8625 91.0361 25.2695 91.4589 25.2558 91.9114Z" fill="white"/>
<path d="M17.875 134.775C17.8715 135.178 17.4747 135.551 17.0643 135.539C16.6641 135.527 16.2587 135.111 16.2827 134.737C16.3921 133.764 17.8322 133.787 17.875 134.775Z" fill="white"/>
<path d="M54.7472 134.769C54.7472 135.181 54.3692 135.551 53.957 135.541C53.5363 135.531 53.1806 135.158 53.1942 134.744C53.2524 133.761 54.7181 133.789 54.7472 134.769Z" fill="white"/>
<path d="M24.4021 112.6C24.8006 112.59 25.1597 112.923 25.1751 113.318C25.1922 113.729 24.8211 114.114 24.4106 114.107C23.458 114.057 23.4255 112.653 24.4021 112.6Z" fill="white"/>
<path d="M47.2964 127.648C47.3015 128.011 46.9492 128.33 46.5541 128.325C46.1864 128.32 45.8392 128.011 45.8272 127.68C45.8118 127.292 46.1778 126.927 46.578 126.935C46.9646 126.944 47.2912 127.267 47.2964 127.648Z" fill="white"/>
<path d="M24.4039 134.139C24.6912 134.126 25.0162 134.434 25.035 134.739C25.0555 135.053 24.7853 135.359 24.4655 135.387C24.1371 135.417 23.8002 135.104 23.8002 134.772C23.8002 134.479 24.1132 134.152 24.4039 134.139Z" fill="white"/>
<path d="M128.291 113.345C128.291 114.157 127.04 114.142 127.054 113.336C127.085 112.517 128.272 112.524 128.291 113.345Z" fill="white"/>
<path d="M84.0211 134.762C84.0365 135.501 82.894 135.526 82.8735 134.79C82.8581 134.048 83.9971 134.026 84.0211 134.762Z" fill="white"/>
<path d="M17.1082 119.969C17.8078 120.004 17.7291 120.979 17.0638 120.98C16.3968 120.904 16.4019 119.974 17.1082 119.969Z" fill="white"/>
<path d="M31.8201 98.5578C32.3657 98.6275 32.3999 99.4696 31.7722 99.4381C31.5105 99.4282 31.3104 99.206 31.3446 98.9623C31.372 98.7651 31.632 98.5446 31.8201 98.5578Z" fill="white"/>
<path d="M105.555 128.059C104.923 128.084 105 127.219 105.565 127.23C106.124 127.23 106.191 128.102 105.555 128.059Z" fill="white"/>
<path d="M10.1203 134.742C10.1391 135.334 9.28912 135.367 9.2207 134.8C9.22583 134.243 10.0451 134.137 10.1203 134.742Z" fill="white"/>
<path d="M46.5529 55.7311C46.8095 55.7244 47.0352 55.9366 47.0284 56.1754C47.0233 56.3726 46.7941 56.5964 46.5871 56.6064C46.0073 56.6147 45.9594 55.7576 46.5529 55.7311Z" fill="white"/>
<path d="M24.8306 98.9913C24.8597 99.5583 24.0285 99.5848 24.0029 99.0294C23.9943 98.8222 24.2012 98.5769 24.3996 98.5636C24.5997 98.5487 24.8204 98.7692 24.8306 98.9913Z" fill="white"/>
<path d="M53.9921 128.03C53.8091 128.039 53.5576 127.828 53.5816 127.661C53.609 127.468 53.727 127.327 53.9408 127.303C54.4333 127.274 54.4709 127.977 53.9921 128.03Z" fill="white"/>
<path d="M9.68392 128.033C9.20675 128 9.17083 127.333 9.67195 127.302C10.1577 127.298 10.1714 127.983 9.68392 128.033Z" fill="white"/>
<path d="M76.3548 34.6821C76.3669 35.0254 75.8424 35.0638 75.8028 34.7321C75.7719 34.5487 75.9232 34.4654 76.0797 34.4537C76.219 34.4437 76.3222 34.5371 76.3548 34.6821Z" fill="white"/>
<path d="M135.34 106.167C135.33 106.487 134.798 106.479 134.833 106.156C134.838 105.824 135.328 105.849 135.34 106.167Z" fill="white"/>
<path d="M39.242 63.0279C39.5618 63.0679 39.4931 63.5862 39.1681 63.5129C38.8276 63.4746 38.9153 62.9979 39.242 63.0279Z" fill="white"/>
<path d="M120.263 120.217C120.576 120.227 120.619 120.697 120.298 120.714C119.931 120.747 119.905 120.267 120.263 120.217Z" fill="white"/>
<path d="M31.8099 134.534C32.1366 134.529 32.0919 135.069 31.7704 135.013C31.6122 134.994 31.5382 134.903 31.5416 134.751C31.5468 134.581 31.6689 134.544 31.8099 134.534Z" fill="white"/>
<path d="M24.3972 84.4764C24.7154 84.4531 24.7584 84.9431 24.4368 84.9565C24.1582 84.9915 24.1307 84.5115 24.3972 84.4764Z" fill="white"/>
<path d="M131.897 76.973C131.889 77.0725 131.88 77.1719 131.873 77.273C131.861 77.3012 131.851 77.3277 131.839 77.3559C131.827 77.3277 131.817 77.3012 131.805 77.273C131.8 77.1703 131.795 77.0691 131.788 76.9664C131.824 76.978 131.86 76.9796 131.897 76.973Z" fill="white"/>
<path d="M131.886 77.9829C131.886 78.0566 131.886 78.1303 131.884 78.2024C131.854 78.204 131.822 78.2057 131.791 78.2073C131.788 78.132 131.786 78.0566 131.783 77.9812C131.817 77.9255 131.852 77.9304 131.886 77.9829Z" fill="white"/>
<path d="M131.889 77.9788L131.836 77.9689L131.783 77.9812C131.79 77.7475 131.795 77.513 131.802 77.2792C131.824 77.2825 131.848 77.2825 131.87 77.2792C131.877 77.513 131.882 77.7451 131.889 77.9788Z" fill="white"/>
<path d="M87.1789 50.1288C87.1113 50.1648 87.042 50.2009 86.9744 50.2353C86.9423 50.1075 86.9592 49.9895 87.1147 49.9748C87.1857 49.9682 87.206 50.0567 87.1789 50.1288Z" fill="white"/>
</svg>
